<?xml version="1.0" encoding="utf-8"?>
<svg xmlns="http://www.w3.org/2000/svg" xmlns:xlink="http://www.w3.org/1999/xlink" style="margin: auto; display: block; z-index: 1; position: relative; shape-rendering: auto;" width="3000" height="2000" preserveAspectRatio="xMidYMid" viewBox="0 0 3000 2000">
<g transform=""><g transform="translate(2329.662762994475,356.44759366437484) scale(100)" opacity="0.4">
  <path d="M10.185 0 C10.185 2.415 10.573564741928704 3.3160486498605795 9.366064741928705 5.407499999999999 S7.18395135013942 7.612968737544507 5.092500000000001 8.820468737544507 S2.4150000000000005 10.815 6.622277566389312e-16 10.815 S-3.001048649860578 10.027968737544509 -5.092499999999998 8.820468737544509 S-8.1585647419287 7.498951350139422 -9.366064741928701 5.407500000000003 S-10.185 2.4150000000000014 -10.185 1.2473027649315794e-15 S-10.573564741928704 -3.3160486498605772 -9.366064741928705 -5.407499999999997 S-7.183951350139424 -7.612968737544506 -5.092500000000005 -8.820468737544507 S-2.415000000000002 -10.815 -1.9866832699167937e-15 -10.815 S3.001048649860573 -10.02796873754451 5.092499999999993 -8.820468737544513 S8.1585647419287 -7.498951350139423 9.366064741928701 -5.407500000000004 S10.185 -2.4150000000000027 10.185 -2.4946055298631588e-15" fill="#fc4309" stroke-width="0">
    <animateTransform attributeName="transform" type="rotate" dur="3.3333333333333335s" repeatCount="indefinite" values="0;60"></animateTransform>
  </path>
</g><g transform="translate(2495.59531559337,227.7371123972498) scale(100)" opacity="0.4">
  <path d="M12.222 0 C12.222 2.8979999999999997 12.688277690314445 3.9792583798326957 11.239277690314445 6.488999999999999 S8.620741620167305 9.135562485053407 6.1110000000000015 10.584562485053407 S2.8980000000000006 12.978 7.946733079667175e-16 12.978 S-3.601258379832694 12.033562485053409 -6.110999999999997 10.584562485053409 S-9.79027769031444 8.998741620167307 -11.239277690314442 6.489000000000004 S-12.222 2.898000000000001 -12.222 1.496763317917895e-15 S-12.688277690314447 -3.979258379832693 -11.239277690314447 -6.488999999999996 S-8.620741620167308 -9.135562485053406 -6.111000000000005 -10.584562485053407 S-2.898000000000002 -12.978 -2.3840199239001524e-15 -12.978 S3.6012583798326876 -12.033562485053412 6.110999999999992 -10.584562485053414 S9.79027769031444 -8.998741620167307 11.239277690314442 -6.489000000000005 S12.222 -2.898000000000003 12.222 -2.99352663583579e-15" fill="#ff5e39" stroke-width="0">
    <animateTransform attributeName="transform" type="rotate" dur="1.6666666666666667s" repeatCount="indefinite" values="0;60"></animateTransform>
  </path>
</g><g transform="translate(2893.8334418307177,-81.16804264385041) scale(100)" opacity="0.4">
  <path d="M17.1108 0 C17.1108 4.0572 17.763588766440225 5.570961731765774 15.734988766440225 9.084599999999998 S12.069038268234227 12.789787479074771 8.555400000000002 14.818387479074772 S4.057200000000001 18.1692 1.1125426311534044e-15 18.1692 S-5.041761731765773 16.846987479074773 -8.555399999999997 14.818387479074774 S-13.706388766440218 12.59823826823423 -15.73498876644022 9.084600000000005 S-17.1108 4.057200000000002 -17.1108 2.0954686450850534e-15 S-17.763588766440225 -5.570961731765769 -15.734988766440226 -9.084599999999995 S-12.06903826823423 -12.789787479074768 -8.555400000000008 -14.81838747907477 S-4.0572000000000035 -18.1692 -3.337627893460213e-15 -18.1692 S5.041761731765764 -16.846987479074777 8.55539999999999 -14.818387479074781 S13.706388766440217 -12.598238268234232 15.734988766440217 -9.084600000000009 S17.1108 -4.057200000000004 17.1108 -4.190937290170107e-15" fill="#ff765c" stroke-width="0">
    <animateTransform attributeName="transform" type="rotate" dur="1.1111111111111112s" repeatCount="indefinite" values="0;60"></animateTransform>
  </path>
</g></g>
</svg>