<?xml version="1.0" encoding="utf-8"?>
<svg xmlns="http://www.w3.org/2000/svg" xmlns:xlink="http://www.w3.org/1999/xlink" style="margin: auto; background: rgb(255, 255, 255); display: block; z-index: 1; position: relative; shape-rendering: crispedges;" width="2209" height="934" preserveAspectRatio="xMidYMid" viewBox="0 0 2209 934">
<g transform=""><g transform="translate(1715.4083478182652,-6.869088531798695) scale(100)" opacity="0.4">
  <path d="M7.499554999999999 0 C7.499554999999999 1.7782449999999999 7.78566817164017 2.4417171558473405 6.89654567164017 3.9817224999999996 S5.2897828441526595 5.605682647078605 3.7497775000000004 6.494805147078605 S1.7782450000000003 7.963445 4.876203714717997e-16 7.963445 S-2.2097721558473387 7.383927647078605 -3.7497774999999978 6.494805147078606 S-6.007423171640168 5.521727844152661 -6.896545671640168 3.9817225000000027 S-7.499554999999999 1.7782450000000007 -7.499554999999999 9.184306025779528e-16 S-7.78566817164017 -2.4417171558473383 -6.896545671640171 -3.981722499999998 S-5.289782844152661 -5.605682647078603 -3.7497775000000027 -6.494805147078604 S-1.7782450000000014 -7.963445 -1.4628611144153991e-15 -7.963445 S2.209772155847335 -7.3839276470786075 3.7497774999999947 -6.494805147078608 S6.007423171640166 -5.521727844152662 6.896545671640167 -3.9817225000000036 S7.499554999999999 -1.7782450000000016 7.499554999999999 -1.8368612051559056e-15" fill="#ff00ff" stroke-width="0">
    <animateTransform attributeName="transform" type="rotate" dur="5s" repeatCount="indefinite" values="0;60"></animateTransform>
  </path>
</g><g transform="translate(1837.5900173819182,-101.64290623815839) scale(100)" opacity="0.4">
  <path d="M8.999465999999998 0 C8.999465999999998 2.1338939999999997 9.342801805968202 2.9300605870168086 8.275854805968203 4.778066999999999 S6.3477394129831906 6.726819176494325 4.499733 7.793766176494325 S2.133894 9.556134 5.851444457661596e-16 9.556134 S-2.6517265870168067 8.860713176494325 -4.499732999999997 7.793766176494326 S-7.208907805968201 6.626073412983194 -8.275854805968201 4.778067000000004 S-8.999465999999998 2.1338940000000006 -8.999465999999998 1.1021167230935431e-15 S-9.342801805968204 -2.9300605870168064 -8.275854805968205 -4.778066999999997 S-6.347739412983193 -6.726819176494323 -4.499733000000003 -7.793766176494324 S-2.1338940000000015 -9.556134 -1.7554333372984788e-15 -9.556134 S2.6517265870168014 -8.860713176494327 4.499732999999993 -7.793766176494329 S7.208907805968199 -6.626073412983194 8.2758548059682 -4.7780670000000045 S8.999465999999998 -2.133894000000002 8.999465999999998 -2.2042334461870863e-15" fill="#00c6ff" stroke-width="0">
    <animateTransform attributeName="transform" type="rotate" dur="2.5s" repeatCount="indefinite" values="0;60"></animateTransform>
  </path>
</g><g transform="translate(2130.826024334685,-329.1000687334217) scale(100)" opacity="0.4">
  <path d="M12.599252399999997 0 C12.599252399999997 2.9874515999999995 13.079922528355484 4.1020848218235315 11.586196728355484 6.689293799999999 S8.886835178176467 9.417546847092055 6.2996262000000005 10.911272647092055 S2.9874516000000004 13.3785876 8.192022240726235e-16 13.3785876 S-3.712417221823529 12.404998447092055 -6.299626199999996 10.911272647092057 S-10.092470928355482 9.276502778176472 -11.586196728355482 6.689293800000004 S-12.599252399999997 2.987451600000001 -12.599252399999997 1.5429634123309604e-15 S-13.079922528355484 -4.102084821823529 -11.586196728355485 -6.689293799999996 S-8.88683517817647 -9.417546847092051 -6.299626200000004 -10.911272647092053 S-2.987451600000002 -13.3785876 -2.45760667221787e-15 -13.3785876 S3.7124172218235225 -12.404998447092058 6.299626199999991 -10.91127264709206 S10.092470928355478 -9.276502778176472 11.58619672835548 -6.689293800000006 S12.599252399999997 -2.9874516000000026 12.599252399999997 -3.085926824661921e-15" fill="#00ffff" stroke-width="0">
    <animateTransform attributeName="transform" type="rotate" dur="1.6666666666666665s" repeatCount="indefinite" values="0;60"></animateTransform>
  </path>
</g></g>
</svg>