<?xml version="1.0" encoding="utf-8"?>
<svg xmlns="http://www.w3.org/2000/svg" xmlns:xlink="http://www.w3.org/1999/xlink" style="margin: auto; background: none; display: block; z-index: 1; position: relative; shape-rendering: auto;" width="2255" height="934" preserveAspectRatio="xMidYMid" viewBox="0 0 2255 934">
<g transform=""><linearGradient id="lg-0.5422820757204116" x1="0" x2="1" y1="0" y2="0">
  <stop stop-color="#ff00ff" offset="0"></stop>
  <stop stop-color="#00ffff" offset="1"></stop>
</linearGradient><path d="M 1652 467 C 1652 622 1401 808 1254 856 C 1107 904 783 909 692 784 C 601 659 666 322 757 197 C 848 72 1094 70 1241 118 C 1388 166 1652 312 1652 467" fill="url(#lg-0.5422820757204116)" opacity="0.4">
  <animate attributeName="d" dur="3.571428571428571s" repeatCount="indefinite" keyTimes="0;0.3333333333333333;0.6666666666666666;1" calcmod="spline" keySplines="0.3 0.1 0.7 0.9;0.3 0.1 0.7 0.9;0.3 0.1 0.7 0.9" begin="-1.4285714285714284s" values="M 1652 467 C 1652 622 1401 808 1254 856 C 1107 904 783 909 692 784 C 601 659 666 322 757 197 C 848 72 1094 70 1241 118 C 1388 166 1652 312 1652 467;M 1806 467 C 1806 652 1449 859 1273 916 C 1097 973 733 983 624 833 C 515 683 469 218 578 68 C 687 -82 1110 -79 1286 -22 C 1462 35 1806 282 1806 467;M 1764 467 C 1764 648 1453 882 1281 938 C 1109 994 745 968 639 822 C 533 676 555 274 661 128 C 767 -18 1098 -27 1270 29 C 1442 85 1764 286 1764 467;M 1652 467 C 1652 622 1401 808 1254 856 C 1107 904 783 909 692 784 C 601 659 666 322 757 197 C 848 72 1094 70 1241 118 C 1388 166 1652 312 1652 467"></animate>
</path><path d="M 1639 467 C 1639 625 1420 857 1270 906 C 1120 955 822 885 729 757 C 636 629 648 314 741 186 C 834 58 1123 -29 1273 20 C 1423 69 1639 309 1639 467" fill="url(#lg-0.5422820757204116)" opacity="0.4">
  <animate attributeName="d" dur="3.571428571428571s" repeatCount="indefinite" keyTimes="0;0.3333333333333333;0.6666666666666666;1" calcmod="spline" keySplines="0.3 0.1 0.7 0.9;0.3 0.1 0.7 0.9;0.3 0.1 0.7 0.9" begin="-1.4285714285714284s" values="M 1639 467 C 1639 625 1420 857 1270 906 C 1120 955 822 885 729 757 C 636 629 648 314 741 186 C 834 58 1123 -29 1273 20 C 1423 69 1639 309 1639 467;M 1780 467 C 1780 648 1464 917 1292 973 C 1120 1029 784 940 678 793 C 572 646 474 217 581 70 C 688 -77 1081 26 1253 82 C 1425 138 1780 286 1780 467;M 1658 467 C 1658 622 1419 864 1272 912 C 1125 960 757 927 666 802 C 575 677 618 288 709 163 C 800 38 1110 20 1257 68 C 1404 116 1658 312 1658 467;M 1639 467 C 1639 625 1420 857 1270 906 C 1120 955 822 885 729 757 C 636 629 648 314 741 186 C 834 58 1123 -29 1273 20 C 1423 69 1639 309 1639 467"></animate>
</path><path d="M 1675 467 C 1675 636 1423 833 1263 885 C 1103 937 746 952 647 816 C 548 680 579 277 678 141 C 777 5 1107 -16 1267 36 C 1427 88 1675 298 1675 467" fill="url(#lg-0.5422820757204116)" opacity="0.4">
  <animate attributeName="d" dur="3.571428571428571s" repeatCount="indefinite" keyTimes="0;0.3333333333333333;0.6666666666666666;1" calcmod="spline" keySplines="0.3 0.1 0.7 0.9;0.3 0.1 0.7 0.9;0.3 0.1 0.7 0.9" begin="-1.4285714285714284s" values="M 1675 467 C 1675 636 1423 833 1263 885 C 1103 937 746 952 647 816 C 548 680 579 277 678 141 C 777 5 1107 -16 1267 36 C 1427 88 1675 298 1675 467;M 1813 467 C 1813 649 1426 798 1253 854 C 1080 910 739 974 632 827 C 525 680 487 226 594 79 C 701 -68 1078 32 1251 88 C 1424 144 1813 285 1813 467;M 1642 467 C 1642 628 1408 809 1255 859 C 1102 909 739 948 644 818 C 549 688 638 310 733 180 C 828 50 1111 -3 1264 47 C 1417 97 1642 306 1642 467;M 1675 467 C 1675 636 1423 833 1263 885 C 1103 937 746 952 647 816 C 548 680 579 277 678 141 C 777 5 1107 -16 1267 36 C 1427 88 1675 298 1675 467"></animate>
</path><path d="M 1635 467 C 1635 629 1413 821 1259 871 C 1105 921 779 920 684 789 C 589 658 552 249 648 118 C 744 -13 1126 -51 1280 -1 C 1434 49 1635 305 1635 467" fill="url(#lg-0.5422820757204116)" opacity="0.4">
  <animate attributeName="d" dur="3.571428571428571s" repeatCount="indefinite" keyTimes="0;0.3333333333333333;0.6666666666666666;1" calcmod="spline" keySplines="0.3 0.1 0.7 0.9;0.3 0.1 0.7 0.9;0.3 0.1 0.7 0.9" begin="-1.4285714285714284s" values="M 1635 467 C 1635 629 1413 821 1259 871 C 1105 921 779 920 684 789 C 589 658 552 249 648 118 C 744 -13 1126 -51 1280 -1 C 1434 49 1635 305 1635 467;M 1703 467 C 1703 620 1390 782 1245 829 C 1100 876 803 892 713 768 C 623 644 639 300 729 177 C 819 54 1119 0 1264 47 C 1409 94 1703 314 1703 467;M 1765 467 C 1765 632 1435 880 1278 931 C 1121 982 805 905 708 771 C 611 637 577 271 674 137 C 771 3 1115 -28 1272 23 C 1429 74 1765 302 1765 467;M 1635 467 C 1635 629 1413 821 1259 871 C 1105 921 779 920 684 789 C 589 658 552 249 648 118 C 744 -13 1126 -51 1280 -1 C 1434 49 1635 305 1635 467"></animate>
</path><path d="M 1690 467 C 1690 625 1418 848 1267 897 C 1116 946 776 918 683 790 C 590 662 655 319 748 191 C 841 63 1110 11 1260 60 C 1410 109 1690 309 1690 467" fill="url(#lg-0.5422820757204116)" opacity="0.4">
  <animate attributeName="d" dur="3.571428571428571s" repeatCount="indefinite" keyTimes="0;0.3333333333333333;0.6666666666666666;1" calcmod="spline" keySplines="0.3 0.1 0.7 0.9;0.3 0.1 0.7 0.9;0.3 0.1 0.7 0.9" begin="-1.4285714285714284s" values="M 1690 467 C 1690 625 1418 848 1267 897 C 1116 946 776 918 683 790 C 590 662 655 319 748 191 C 841 63 1110 11 1260 60 C 1410 109 1690 309 1690 467;M 1759 467 C 1759 631 1432 873 1276 924 C 1120 975 736 953 640 821 C 544 689 554 252 650 120 C 746 -12 1125 -52 1280 -1 C 1435 50 1759 303 1759 467;M 1702 467 C 1702 651 1457 886 1282 943 C 1107 1000 752 967 644 818 C 536 669 559 281 667 132 C 775 -17 1116 -93 1291 -36 C 1466 21 1702 283 1702 467;M 1690 467 C 1690 625 1418 848 1267 897 C 1116 946 776 918 683 790 C 590 662 655 319 748 191 C 841 63 1110 11 1260 60 C 1410 109 1690 309 1690 467"></animate>
</path></g>
</svg>