<?xml version="1.0" encoding="utf-8"?>
<svg xmlns="http://www.w3.org/2000/svg" xmlns:xlink="http://www.w3.org/1999/xlink" style="margin: auto; background: none; display: block; z-index: 1; position: relative; shape-rendering: auto;" width="2255" height="934" preserveAspectRatio="xMidYMid" viewBox="0 0 2255 934">
<g transform=""><linearGradient id="lg-0.46366297530046596" x1="0" x2="1" y1="0" y2="0">
  <stop stop-color="#ff00ff" offset="0"></stop>
  <stop stop-color="#00ffff" offset="1"></stop>
</linearGradient><path d="M 1684 467 C 1684 644 1457 910 1289 965 C 1121 1020 719 982 615 839 C 511 696 569 280 673 137 C 777 -6 1123 -92 1291 -38 C 1459 16 1684 290 1684 467" fill="url(#lg-0.46366297530046596)" opacity="0.4">
  <animate attributeName="d" dur="5s" repeatCount="indefinite" keyTimes="0;0.3333333333333333;0.6666666666666666;1" calcmod="spline" keySplines="0.3 0.1 0.7 0.9;0.3 0.1 0.7 0.9;0.3 0.1 0.7 0.9" begin="-2s" values="M 1684 467 C 1684 644 1457 910 1289 965 C 1121 1020 719 982 615 839 C 511 696 569 280 673 137 C 777 -6 1123 -92 1291 -38 C 1459 16 1684 290 1684 467;M 1780 467 C 1780 633 1417 822 1259 873 C 1101 924 784 922 686 788 C 588 654 536 244 634 109 C 732 -26 1109 -13 1267 38 C 1425 89 1780 301 1780 467;M 1733 467 C 1733 622 1403 810 1255 858 C 1107 906 783 910 692 784 C 601 658 590 268 681 142 C 772 16 1122 -21 1270 27 C 1418 75 1733 312 1733 467;M 1684 467 C 1684 644 1457 910 1289 965 C 1121 1020 719 982 615 839 C 511 696 569 280 673 137 C 777 -6 1123 -92 1291 -38 C 1459 16 1684 290 1684 467"></animate>
</path><path d="M 1693 467 C 1693 647 1444 860 1273 916 C 1102 972 798 929 692 783 C 586 637 578 291 684 145 C 790 -1 1099 -27 1270 29 C 1441 85 1693 287 1693 467" fill="url(#lg-0.46366297530046596)" opacity="0.4">
  <animate attributeName="d" dur="5s" repeatCount="indefinite" keyTimes="0;0.3333333333333333;0.6666666666666666;1" calcmod="spline" keySplines="0.3 0.1 0.7 0.9;0.3 0.1 0.7 0.9;0.3 0.1 0.7 0.9" begin="-2s" values="M 1693 467 C 1693 647 1444 860 1273 916 C 1102 972 798 929 692 783 C 586 637 578 291 684 145 C 790 -1 1099 -27 1270 29 C 1441 85 1693 287 1693 467;M 1663 467 C 1663 629 1407 804 1253 854 C 1099 904 817 892 722 761 C 627 630 581 270 676 139 C 771 8 1105 13 1259 63 C 1413 113 1663 305 1663 467;M 1657 467 C 1657 637 1408 781 1247 834 C 1086 887 831 892 731 755 C 631 618 554 260 654 123 C 754 -14 1092 25 1254 77 C 1416 129 1657 297 1657 467;M 1693 467 C 1693 647 1444 860 1273 916 C 1102 972 798 929 692 783 C 586 637 578 291 684 145 C 790 -1 1099 -27 1270 29 C 1441 85 1693 287 1693 467"></animate>
</path><path d="M 1816 467 C 1816 646 1437 841 1267 896 C 1097 951 805 922 700 777 C 595 632 523 249 628 104 C 733 -41 1119 -84 1289 -29 C 1459 26 1816 288 1816 467" fill="url(#lg-0.46366297530046596)" opacity="0.4">
  <animate attributeName="d" dur="5s" repeatCount="indefinite" keyTimes="0;0.3333333333333333;0.6666666666666666;1" calcmod="spline" keySplines="0.3 0.1 0.7 0.9;0.3 0.1 0.7 0.9;0.3 0.1 0.7 0.9" begin="-2s" values="M 1816 467 C 1816 646 1437 841 1267 896 C 1097 951 805 922 700 777 C 595 632 523 249 628 104 C 733 -41 1119 -84 1289 -29 C 1459 26 1816 288 1816 467;M 1720 467 C 1720 639 1421 814 1257 867 C 1093 920 831 895 730 756 C 629 617 615 307 716 168 C 817 29 1087 38 1250 91 C 1413 144 1720 295 1720 467;M 1765 467 C 1765 627 1427 870 1275 920 C 1123 970 844 871 750 741 C 656 611 603 284 697 154 C 791 24 1112 -2 1264 48 C 1416 98 1765 307 1765 467;M 1816 467 C 1816 646 1437 841 1267 896 C 1097 951 805 922 700 777 C 595 632 523 249 628 104 C 733 -41 1119 -84 1289 -29 C 1459 26 1816 288 1816 467"></animate>
</path><path d="M 1716 467 C 1716 649 1444 853 1271 909 C 1098 965 743 972 636 824 C 529 676 563 281 670 134 C 777 -13 1097 -27 1270 29 C 1443 85 1716 285 1716 467" fill="url(#lg-0.46366297530046596)" opacity="0.4">
  <animate attributeName="d" dur="5s" repeatCount="indefinite" keyTimes="0;0.3333333333333333;0.6666666666666666;1" calcmod="spline" keySplines="0.3 0.1 0.7 0.9;0.3 0.1 0.7 0.9;0.3 0.1 0.7 0.9" begin="-2s" values="M 1716 467 C 1716 649 1444 853 1271 909 C 1098 965 743 972 636 824 C 529 676 563 281 670 134 C 777 -13 1097 -27 1270 29 C 1443 85 1716 285 1716 467;M 1779 467 C 1779 652 1439 828 1263 885 C 1087 942 720 991 612 841 C 504 691 476 222 585 73 C 694 -76 1099 -44 1275 13 C 1451 70 1779 282 1779 467;M 1750 467 C 1750 624 1422 866 1273 915 C 1124 964 799 899 707 772 C 615 645 633 301 725 174 C 817 47 1115 -2 1264 46 C 1413 94 1750 310 1750 467;M 1716 467 C 1716 649 1444 853 1271 909 C 1098 965 743 972 636 824 C 529 676 563 281 670 134 C 777 -13 1097 -27 1270 29 C 1443 85 1716 285 1716 467"></animate>
</path><path d="M 1750 467 C 1750 633 1422 837 1264 888 C 1106 939 770 931 673 797 C 576 663 599 288 697 154 C 795 20 1102 8 1260 59 C 1418 110 1750 301 1750 467" fill="url(#lg-0.46366297530046596)" opacity="0.4">
  <animate attributeName="d" dur="5s" repeatCount="indefinite" keyTimes="0;0.3333333333333333;0.6666666666666666;1" calcmod="spline" keySplines="0.3 0.1 0.7 0.9;0.3 0.1 0.7 0.9;0.3 0.1 0.7 0.9" begin="-2s" values="M 1750 467 C 1750 633 1422 837 1264 888 C 1106 939 770 931 673 797 C 576 663 599 288 697 154 C 795 20 1102 8 1260 59 C 1418 110 1750 301 1750 467;M 1692 467 C 1692 647 1441 850 1270 906 C 1099 962 796 931 690 785 C 584 639 523 251 629 105 C 735 -41 1120 -92 1291 -36 C 1462 20 1692 287 1692 467;M 1785 467 C 1785 641 1456 913 1290 967 C 1124 1021 827 900 725 759 C 623 618 567 275 669 134 C 771 -7 1079 51 1245 105 C 1411 159 1785 293 1785 467;M 1750 467 C 1750 633 1422 837 1264 888 C 1106 939 770 931 673 797 C 576 663 599 288 697 154 C 795 20 1102 8 1260 59 C 1418 110 1750 301 1750 467"></animate>
</path></g>
</svg>