<?xml version="1.0" encoding="utf-8"?>
<svg xmlns="http://www.w3.org/2000/svg" xmlns:xlink="http://www.w3.org/1999/xlink" style="margin: auto; background: none; display: block; z-index: 1; position: relative; shape-rendering: auto;" width="2255" height="934" preserveAspectRatio="xMidYMid" viewBox="0 0 2255 934">
<g transform=""><linearGradient id="lg-0.5833588654002646" x1="0" x2="1" y1="0" y2="0">
  <stop stop-color="#ff00ff" offset="0"></stop>
  <stop stop-color="#00ffff" offset="1"></stop>
</linearGradient><path d="M 1724 467 C 1724 635 1408 789 1249 841 C 1090 893 751 947 653 811 C 555 675 569 269 668 133 C 767 -3 1097 19 1256 71 C 1415 123 1724 299 1724 467" fill="url(#lg-0.5833588654002646)" opacity="0.4">
  <animate attributeName="d" dur="10s" repeatCount="indefinite" keyTimes="0;0.3333333333333333;0.6666666666666666;1" calcmod="spline" keySplines="0.3 0.1 0.7 0.9;0.3 0.1 0.7 0.9;0.3 0.1 0.7 0.9" begin="-4s" values="M 1724 467 C 1724 635 1408 789 1249 841 C 1090 893 751 947 653 811 C 555 675 569 269 668 133 C 767 -3 1097 19 1256 71 C 1415 123 1724 299 1724 467;M 1770 467 C 1770 635 1424 840 1265 892 C 1106 944 752 947 654 811 C 556 675 557 260 655 124 C 753 -12 1089 44 1248 96 C 1407 148 1770 299 1770 467;M 1678 467 C 1678 624 1391 770 1242 819 C 1093 868 837 872 745 745 C 653 618 669 328 761 201 C 853 74 1122 -24 1271 24 C 1420 72 1678 310 1678 467;M 1724 467 C 1724 635 1408 789 1249 841 C 1090 893 751 947 653 811 C 555 675 569 269 668 133 C 767 -3 1097 19 1256 71 C 1415 123 1724 299 1724 467"></animate>
</path><path d="M 1673 467 C 1673 642 1423 810 1256 864 C 1089 918 796 925 693 783 C 590 641 576 283 679 141 C 782 -1 1110 -48 1277 6 C 1444 60 1673 292 1673 467" fill="url(#lg-0.5833588654002646)" opacity="0.4">
  <animate attributeName="d" dur="10s" repeatCount="indefinite" keyTimes="0;0.3333333333333333;0.6666666666666666;1" calcmod="spline" keySplines="0.3 0.1 0.7 0.9;0.3 0.1 0.7 0.9;0.3 0.1 0.7 0.9" begin="-4s" values="M 1673 467 C 1673 642 1423 810 1256 864 C 1089 918 796 925 693 783 C 590 641 576 283 679 141 C 782 -1 1110 -48 1277 6 C 1444 60 1673 292 1673 467;M 1741 467 C 1741 632 1406 790 1249 841 C 1092 892 751 945 654 811 C 557 677 614 298 711 164 C 808 30 1099 19 1256 70 C 1413 121 1741 302 1741 467;M 1818 467 C 1818 650 1451 872 1277 928 C 1103 984 812 923 704 775 C 596 627 580 295 688 147 C 796 -1 1089 -6 1263 51 C 1437 108 1818 284 1818 467;M 1673 467 C 1673 642 1423 810 1256 864 C 1089 918 796 925 693 783 C 590 641 576 283 679 141 C 782 -1 1110 -48 1277 6 C 1444 60 1673 292 1673 467"></animate>
</path><path d="M 1696 467 C 1696 640 1444 879 1279 933 C 1114 987 753 953 651 813 C 549 673 560 269 662 129 C 764 -11 1091 18 1256 72 C 1421 126 1696 294 1696 467" fill="url(#lg-0.5833588654002646)" opacity="0.4">
  <animate attributeName="d" dur="10s" repeatCount="indefinite" keyTimes="0;0.3333333333333333;0.6666666666666666;1" calcmod="spline" keySplines="0.3 0.1 0.7 0.9;0.3 0.1 0.7 0.9;0.3 0.1 0.7 0.9" begin="-4s" values="M 1696 467 C 1696 640 1444 879 1279 933 C 1114 987 753 953 651 813 C 549 673 560 269 662 129 C 764 -11 1091 18 1256 72 C 1421 126 1696 294 1696 467;M 1658 467 C 1658 636 1403 767 1242 819 C 1081 871 767 938 668 801 C 569 664 561 264 660 127 C 759 -10 1125 -72 1286 -20 C 1447 32 1658 298 1658 467;M 1849 467 C 1849 649 1434 821 1261 877 C 1088 933 762 958 655 811 C 548 664 497 234 604 87 C 711 -60 1119 -95 1292 -39 C 1465 17 1849 285 1849 467;M 1696 467 C 1696 640 1444 879 1279 933 C 1114 987 753 953 651 813 C 549 673 560 269 662 129 C 764 -11 1091 18 1256 72 C 1421 126 1696 294 1696 467"></animate>
</path><path d="M 1701 467 C 1701 628 1405 799 1252 849 C 1099 899 749 941 654 811 C 559 681 634 308 729 178 C 824 48 1110 0 1263 50 C 1416 100 1701 306 1701 467" fill="url(#lg-0.5833588654002646)" opacity="0.4">
  <animate attributeName="d" dur="10s" repeatCount="indefinite" keyTimes="0;0.3333333333333333;0.6666666666666666;1" calcmod="spline" keySplines="0.3 0.1 0.7 0.9;0.3 0.1 0.7 0.9;0.3 0.1 0.7 0.9" begin="-4s" values="M 1701 467 C 1701 628 1405 799 1252 849 C 1099 899 749 941 654 811 C 559 681 634 308 729 178 C 824 48 1110 0 1263 50 C 1416 100 1701 306 1701 467;M 1684 467 C 1684 644 1433 833 1264 888 C 1095 943 700 996 596 853 C 492 710 546 263 650 120 C 754 -23 1098 -13 1266 42 C 1434 97 1684 290 1684 467;M 1769 467 C 1769 640 1411 778 1246 832 C 1081 886 780 934 678 794 C 576 654 510 233 612 93 C 714 -47 1122 -78 1287 -24 C 1452 30 1769 294 1769 467;M 1701 467 C 1701 628 1405 799 1252 849 C 1099 899 749 941 654 811 C 559 681 634 308 729 178 C 824 48 1110 0 1263 50 C 1416 100 1701 306 1701 467"></animate>
</path><path d="M 1612 467 C 1612 623 1406 819 1258 867 C 1110 915 775 916 683 790 C 591 664 620 291 712 165 C 804 39 1103 38 1251 86 C 1399 134 1612 311 1612 467" fill="url(#lg-0.5833588654002646)" opacity="0.4">
  <animate attributeName="d" dur="10s" repeatCount="indefinite" keyTimes="0;0.3333333333333333;0.6666666666666666;1" calcmod="spline" keySplines="0.3 0.1 0.7 0.9;0.3 0.1 0.7 0.9;0.3 0.1 0.7 0.9" begin="-4s" values="M 1612 467 C 1612 623 1406 819 1258 867 C 1110 915 775 916 683 790 C 591 664 620 291 712 165 C 804 39 1103 38 1251 86 C 1399 134 1612 311 1612 467;M 1828 467 C 1828 646 1433 827 1262 882 C 1091 937 712 990 607 845 C 502 700 542 263 648 118 C 754 -27 1103 -39 1274 17 C 1445 73 1828 288 1828 467;M 1739 467 C 1739 627 1418 844 1266 893 C 1114 942 808 897 714 768 C 620 639 640 310 734 181 C 828 52 1105 20 1257 70 C 1409 120 1739 307 1739 467;M 1612 467 C 1612 623 1406 819 1258 867 C 1110 915 775 916 683 790 C 591 664 620 291 712 165 C 804 39 1103 38 1251 86 C 1399 134 1612 311 1612 467"></animate>
</path></g>
</svg>