<?xml version="1.0" encoding="utf-8"?>
<svg xmlns="http://www.w3.org/2000/svg" xmlns:xlink="http://www.w3.org/1999/xlink" style="margin: auto; background: none; display: block; z-index: 1; position: relative; shape-rendering: auto;" width="2255" height="934" preserveAspectRatio="xMidYMid" viewBox="0 0 2255 934">
<g transform=""><linearGradient id="lg-0.26407413213320496" x1="0" x2="1" y1="0" y2="0">
  <stop stop-color="#ff00ff" offset="0"></stop>
  <stop stop-color="#00ffff" offset="1"></stop>
</linearGradient><path d="M 1622 467 C 1622 624 1418 853 1269 902 C 1120 951 845 866 753 739 C 661 612 623 294 715 167 C 807 40 1095 56 1245 104 C 1395 152 1622 310 1622 467" fill="url(#lg-0.26407413213320496)" opacity="0.4">
  <animate attributeName="d" dur="6.666666666666666s" repeatCount="indefinite" keyTimes="0;0.3333333333333333;0.6666666666666666;1" calcmod="spline" keySplines="0.3 0.1 0.7 0.9;0.3 0.1 0.7 0.9;0.3 0.1 0.7 0.9" begin="-2.6666666666666665s" values="M 1622 467 C 1622 624 1418 853 1269 902 C 1120 951 845 866 753 739 C 661 612 623 294 715 167 C 807 40 1095 56 1245 104 C 1395 152 1622 310 1622 467;M 1651 467 C 1651 624 1400 799 1251 847 C 1102 895 808 893 716 766 C 624 639 587 268 679 141 C 771 14 1123 -26 1272 22 C 1421 70 1651 310 1651 467;M 1643 467 C 1643 620 1411 843 1265 890 C 1119 937 827 875 737 751 C 647 627 583 260 673 136 C 763 12 1099 59 1245 106 C 1391 153 1643 314 1643 467;M 1622 467 C 1622 624 1418 853 1269 902 C 1120 951 845 866 753 739 C 661 612 623 294 715 167 C 807 40 1095 56 1245 104 C 1395 152 1622 310 1622 467"></animate>
</path><path d="M 1691 467 C 1691 621 1407 832 1261 879 C 1115 926 786 904 696 780 C 606 656 674 327 764 203 C 854 79 1117 2 1263 50 C 1409 98 1691 313 1691 467" fill="url(#lg-0.26407413213320496)" opacity="0.4">
  <animate attributeName="d" dur="6.666666666666666s" repeatCount="indefinite" keyTimes="0;0.3333333333333333;0.6666666666666666;1" calcmod="spline" keySplines="0.3 0.1 0.7 0.9;0.3 0.1 0.7 0.9;0.3 0.1 0.7 0.9" begin="-2.6666666666666665s" values="M 1691 467 C 1691 621 1407 832 1261 879 C 1115 926 786 904 696 780 C 606 656 674 327 764 203 C 854 79 1117 2 1263 50 C 1409 98 1691 313 1691 467;M 1614 467 C 1614 623 1415 846 1266 894 C 1117 942 750 934 658 808 C 566 682 648 311 740 185 C 832 59 1096 62 1244 110 C 1392 158 1614 311 1614 467;M 1744 467 C 1744 650 1445 850 1271 907 C 1097 964 753 966 645 818 C 537 670 540 267 648 119 C 756 -29 1124 -114 1298 -57 C 1472 0 1744 284 1744 467;M 1691 467 C 1691 621 1407 832 1261 879 C 1115 926 786 904 696 780 C 606 656 674 327 764 203 C 854 79 1117 2 1263 50 C 1409 98 1691 313 1691 467"></animate>
</path><path d="M 1794 467 C 1794 635 1404 772 1244 824 C 1084 876 810 905 711 769 C 612 633 534 243 633 107 C 732 -29 1083 59 1243 111 C 1403 163 1794 299 1794 467" fill="url(#lg-0.26407413213320496)" opacity="0.4">
  <animate attributeName="d" dur="6.666666666666666s" repeatCount="indefinite" keyTimes="0;0.3333333333333333;0.6666666666666666;1" calcmod="spline" keySplines="0.3 0.1 0.7 0.9;0.3 0.1 0.7 0.9;0.3 0.1 0.7 0.9" begin="-2.6666666666666665s" values="M 1794 467 C 1794 635 1404 772 1244 824 C 1084 876 810 905 711 769 C 612 633 534 243 633 107 C 732 -29 1083 59 1243 111 C 1403 163 1794 299 1794 467;M 1771 467 C 1771 646 1444 863 1274 918 C 1104 973 704 996 599 851 C 494 706 483 220 588 75 C 693 -70 1124 -99 1294 -44 C 1464 11 1771 288 1771 467;M 1738 467 C 1738 633 1410 798 1252 849 C 1094 900 838 883 740 749 C 642 615 621 304 719 170 C 817 36 1091 43 1249 94 C 1407 145 1738 301 1738 467;M 1794 467 C 1794 635 1404 772 1244 824 C 1084 876 810 905 711 769 C 612 633 534 243 633 107 C 732 -29 1083 59 1243 111 C 1403 163 1794 299 1794 467"></animate>
</path><path d="M 1647 467 C 1647 634 1442 893 1283 945 C 1124 997 780 926 682 791 C 584 656 623 307 721 172 C 819 37 1099 14 1258 66 C 1417 118 1647 300 1647 467" fill="url(#lg-0.26407413213320496)" opacity="0.4">
  <animate attributeName="d" dur="6.666666666666666s" repeatCount="indefinite" keyTimes="0;0.3333333333333333;0.6666666666666666;1" calcmod="spline" keySplines="0.3 0.1 0.7 0.9;0.3 0.1 0.7 0.9;0.3 0.1 0.7 0.9" begin="-2.6666666666666665s" values="M 1647 467 C 1647 634 1442 893 1283 945 C 1124 997 780 926 682 791 C 584 656 623 307 721 172 C 819 37 1099 14 1258 66 C 1417 118 1647 300 1647 467;M 1803 467 C 1803 638 1412 788 1249 841 C 1086 894 752 951 651 813 C 550 675 535 248 636 110 C 737 -28 1117 -56 1280 -3 C 1443 50 1803 296 1803 467;M 1847 467 C 1847 652 1461 898 1286 955 C 1111 1012 791 939 683 790 C 575 641 571 290 679 141 C 787 -8 1115 -90 1290 -33 C 1465 24 1847 282 1847 467;M 1647 467 C 1647 634 1442 893 1283 945 C 1124 997 780 926 682 791 C 584 656 623 307 721 172 C 819 37 1099 14 1258 66 C 1417 118 1647 300 1647 467"></animate>
</path><path d="M 1716 467 C 1716 626 1387 751 1236 800 C 1085 849 792 907 699 778 C 606 649 661 325 754 196 C 847 67 1084 88 1235 137 C 1386 186 1716 308 1716 467" fill="url(#lg-0.26407413213320496)" opacity="0.4">
  <animate attributeName="d" dur="6.666666666666666s" repeatCount="indefinite" keyTimes="0;0.3333333333333333;0.6666666666666666;1" calcmod="spline" keySplines="0.3 0.1 0.7 0.9;0.3 0.1 0.7 0.9;0.3 0.1 0.7 0.9" begin="-2.6666666666666665s" values="M 1716 467 C 1716 626 1387 751 1236 800 C 1085 849 792 907 699 778 C 606 649 661 325 754 196 C 847 67 1084 88 1235 137 C 1386 186 1716 308 1716 467;M 1761 467 C 1761 653 1436 816 1259 873 C 1082 930 688 1016 579 865 C 470 714 579 299 689 148 C 799 -3 1088 -14 1265 44 C 1442 102 1761 281 1761 467;M 1714 467 C 1714 637 1406 775 1244 827 C 1082 879 728 967 628 830 C 528 693 623 310 723 173 C 823 36 1108 -25 1270 27 C 1432 79 1714 297 1714 467;M 1716 467 C 1716 626 1387 751 1236 800 C 1085 849 792 907 699 778 C 606 649 661 325 754 196 C 847 67 1084 88 1235 137 C 1386 186 1716 308 1716 467"></animate>
</path></g>
</svg>