<?xml version="1.0" encoding="utf-8"?>
<svg xmlns="http://www.w3.org/2000/svg" style="margin: auto; display: block; shape-rendering: auto; background-image: none; background-position: initial initial; background-repeat: initial initial;" width="518" height="250" preserveAspectRatio="xMidYMid">
<style type="text/css">
  text {
    text-anchor: middle; font-size: 80px; opacity: 0;
  }
</style>
<g style="transform-origin:259px 125px;transform:scale(1)">
<g transform="translate(259,125)">
  <g transform="translate(0,0)"><g class="path" style="transform: matrix(1, 0, 0, 1, 0, 0); transform-origin: -151.25003051757812px 5.340492248535156px; animation: tremble-9944c60d-1e41-4672-bcab-daef376c9e72 11.11111111111111s linear -6.769230769230769s infinite normal forwards;"><path d="M5.20-18.71L3.67-19.10L3.67-19.10Q4.26-20.63 4.94-22.01L4.94-22.01L4.94-22.01Q5.63-23.40 6.41-24.45L6.41-24.45L6.41-24.45Q7.19-25.51 8.11-26.15L8.11-26.15L8.11-26.15Q9.02-26.80 10.16-26.80L10.16-26.80L10.16-26.80Q10.70-26.80 11.41-26.56L11.41-26.56L11.41-26.56Q12.11-26.33 12.75-25.63L12.75-25.63L12.75-25.63Q13.40-24.92 13.83-23.59L13.83-23.59L13.83-23.59Q14.26-22.27 14.26-20.08L14.26-20.08L14.26-20.08Q14.26-18.95 14.14-17.58L14.14-17.58L14.14-17.58Q14.02-16.21 13.91-14.88L13.91-14.88L13.91-14.88Q15.12-17.46 16.31-19.24L16.31-19.24L16.31-19.24Q17.50-21.02 18.65-22.09L18.65-22.09L18.65-22.09Q19.80-23.16 20.94-23.65L20.94-23.65L20.94-23.65Q22.07-24.14 23.20-24.14L23.20-24.14L23.20-24.14Q23.71-24.14 24.39-23.91L24.39-23.91L24.39-23.91Q25.08-23.67 25.68-23.09L25.68-23.09L25.68-23.09Q26.29-22.50 26.70-21.48L26.70-21.48L26.70-21.48Q27.11-20.47 27.11-18.87L27.11-18.87L27.11-18.87Q27.11-17.58 26.91-16.29L26.91-16.29L26.91-16.29Q26.72-15 26.48-13.79L26.48-13.79L26.48-13.79Q26.25-12.58 26.05-11.50L26.05-11.50L26.05-11.50Q25.86-10.43 25.86-9.61L25.86-9.61L25.86-9.61Q25.86-7.66 26.56-6.62L26.56-6.62L26.56-6.62Q27.27-5.59 28.71-5.59L28.71-5.59L28.71-5.59Q29.88-5.59 30.94-6.46L30.94-6.46L30.94-6.46Q31.99-7.34 32.91-8.71L32.91-8.71L32.91-8.71Q33.83-10.08 34.59-11.72L34.59-11.72L34.59-11.72Q35.35-13.36 35.92-14.86L35.92-14.86L35.92-14.86Q36.48-16.37 36.88-17.52L36.88-17.52L36.88-17.52Q37.27-18.67 37.42-19.10L37.42-19.10L38.95-18.71L38.95-18.71Q38.40-17.34 37.79-15.68L37.79-15.68L37.79-15.68Q37.19-14.02 36.45-12.34L36.45-12.34L36.45-12.34Q35.70-10.66 34.84-9.08L34.84-9.08L34.84-9.08Q33.98-7.50 32.93-6.29L32.93-6.29L32.93-6.29Q31.88-5.08 30.64-4.34L30.64-4.34L30.64-4.34Q29.41-3.59 27.93-3.59L27.93-3.59L27.93-3.59Q26.68-3.59 25.76-4.08L25.76-4.08L25.76-4.08Q24.84-4.57 24.22-5.39L24.22-5.39L24.22-5.39Q23.59-6.21 23.28-7.34L23.28-7.34L23.28-7.34Q22.97-8.48 22.97-9.77L22.97-9.77L22.97-9.77Q22.97-11.21 23.22-12.73L23.22-12.73L23.22-12.73Q23.48-14.26 23.77-15.66L23.77-15.66L23.77-15.66Q24.06-17.07 24.32-18.26L24.32-18.26L24.32-18.26Q24.57-19.45 24.57-20.23L24.57-20.23L24.57-20.23Q24.57-21.45 24.10-22.05L24.10-22.05L24.10-22.05Q23.63-22.66 22.81-22.66L22.81-22.66L22.81-22.66Q21.68-22.66 20.61-21.84L20.61-21.84L20.61-21.84Q19.53-21.02 18.54-19.65L18.54-19.65L18.54-19.65Q17.54-18.28 16.64-16.52L16.64-16.52L16.64-16.52Q15.74-14.77 14.98-12.91L14.98-12.91L14.98-12.91Q14.22-11.05 13.57-9.22L13.57-9.22L13.57-9.22Q12.93-7.38 12.46-5.90L12.46-5.90L12.46-5.90Q11.99-4.41 11.66-3.38L11.66-3.38L11.66-3.38Q11.33-2.34 11.21-2.07L11.21-2.07L8.95-2.46L8.95-2.46Q9.41-4.77 9.80-7.32L9.80-7.32L9.80-7.32Q10.20-9.88 10.49-12.36L10.49-12.36L10.49-12.36Q10.78-14.84 10.96-17.11L10.96-17.11L10.96-17.11Q11.13-19.38 11.13-21.13L11.13-21.13L11.13-21.13Q11.13-23.52 10.82-24.36L10.82-24.36L10.82-24.36Q10.51-25.20 9.69-25.20L9.69-25.20L9.69-25.20Q8.98-25.20 8.36-24.67L8.36-24.67L8.36-24.67Q7.73-24.14 7.21-23.26L7.21-23.26L7.21-23.26Q6.68-22.38 6.17-21.21L6.17-21.21L6.17-21.21Q5.66-20.04 5.20-18.71L5.20-18.71" fill="#0a0a0a" stroke="none" stroke-width="none" transform="translate(-172.56002807617188,19.775490933931795)" style="fill: rgb(10, 10, 10);"></path></g><g class="path" style="transform: matrix(1, 0, 0, 1, 0, 0); transform-origin: -121.62003135681152px 5.070491790771484px; animation: tremble-9944c60d-1e41-4672-bcab-daef376c9e72 11.11111111111111s linear -6.205128205128205s infinite normal forwards;"><path d="M47.19-3.52L47.19-3.52L47.19-3.52Q49.38-3.52 51.39-5.12L51.39-5.12L51.39-5.12Q53.40-6.72 54.53-9.77L54.53-9.77L54.22-9.77L54.22-9.77Q51.80-9.77 49.75-10.59L49.75-10.59L49.75-10.59Q47.70-11.41 46.19-12.87L46.19-12.87L46.19-12.87Q44.69-14.34 43.83-16.39L43.83-16.39L43.83-16.39Q42.97-18.44 42.97-20.90L42.97-20.90L42.97-20.90Q42.97-22.27 43.34-23.67L43.34-23.67L43.34-23.67Q43.71-25.08 44.49-26.19L44.49-26.19L44.49-26.19Q45.27-27.30 46.52-28.01L46.52-28.01L46.52-28.01Q47.77-28.71 49.49-28.71L49.49-28.71L49.49-28.71Q50.90-28.71 52.27-28.14L52.27-28.14L52.27-28.14Q53.63-27.58 54.73-26.21L54.73-26.21L54.73-26.21Q55.82-24.84 56.50-22.52L56.50-22.52L56.50-22.52Q57.19-20.20 57.19-16.64L57.19-16.64L57.19-16.64Q57.19-15.31 57.07-14.00L57.07-14.00L57.07-14.00Q56.95-12.70 56.64-11.45L56.64-11.45L56.64-11.45Q58.16-11.72 59.36-12.42L59.36-12.42L59.36-12.42Q60.55-13.13 61.46-14.12L61.46-14.12L61.46-14.12Q62.38-15.12 63.09-16.39L63.09-16.39L63.09-16.39Q63.79-17.66 64.38-19.10L64.38-19.10L65.90-18.71L65.90-18.71Q65.08-16.48 64.00-14.92L64.00-14.92L64.00-14.92Q62.93-13.36 61.70-12.30L61.70-12.30L61.70-12.30Q60.47-11.25 59.12-10.68L59.12-10.68L59.12-10.68Q57.77-10.12 56.33-9.92L56.33-9.92L56.33-9.92Q55.78-8.01 54.88-6.33L54.88-6.33L54.88-6.33Q53.98-4.65 52.70-3.40L52.70-3.40L52.70-3.40Q51.41-2.15 49.71-1.43L49.71-1.43L49.71-1.43Q48.01-0.70 45.90-0.70L45.90-0.70L45.90-0.70Q44.14-0.70 42.36-1.43L42.36-1.43L42.36-1.43Q40.59-2.15 39.16-3.65L39.16-3.65L39.16-3.65Q37.73-5.16 36.86-7.44L36.86-7.44L36.86-7.44Q35.98-9.73 35.98-12.89L35.98-12.89L35.98-12.89Q35.98-14.96 36.46-16.95L36.46-16.95L36.46-16.95Q36.95-18.95 37.83-20.72L37.83-20.72L37.83-20.72Q38.71-22.50 39.92-24.04L39.92-24.04L39.92-24.04Q41.13-25.59 42.54-26.72L42.54-26.72L43.13-25.74L43.13-25.74Q42.23-24.92 41.41-23.71L41.41-23.71L41.41-23.71Q40.59-22.50 39.92-21.04L39.92-21.04L39.92-21.04Q39.26-19.57 38.87-17.95L38.87-17.95L38.87-17.95Q38.48-16.33 38.48-14.73L38.48-14.73L38.48-14.73Q38.48-11.56 39.28-9.41L39.28-9.41L39.28-9.41Q40.08-7.27 41.33-5.96L41.33-5.96L41.33-5.96Q42.58-4.65 44.14-4.08L44.14-4.08L44.14-4.08Q45.70-3.52 47.19-3.52zM49.41-27.19L49.41-27.19L49.41-27.19Q48.36-27.19 47.46-26.74L47.46-26.74L47.46-26.74Q46.56-26.29 45.90-25.51L45.90-25.51L45.90-25.51Q45.23-24.73 44.84-23.63L44.84-23.63L44.84-23.63Q44.45-22.54 44.45-21.21L44.45-21.21L44.45-21.21Q44.45-18.91 45.23-17.07L45.23-17.07L45.23-17.07Q46.02-15.23 47.36-13.95L47.36-13.95L47.36-13.95Q48.71-12.66 50.51-11.97L50.51-11.97L50.51-11.97Q52.30-11.29 54.38-11.29L54.38-11.29L55.12-11.29L55.12-11.29Q55.43-12.50 55.55-13.83L55.55-13.83L55.55-13.83Q55.66-15.16 55.66-16.72L55.66-16.72L55.66-16.72Q55.59-19.73 55.06-21.74L55.06-21.74L55.06-21.74Q54.53-23.75 53.71-24.96L53.71-24.96L53.71-24.96Q52.89-26.17 51.78-26.68L51.78-26.68L51.78-26.68Q50.66-27.19 49.41-27.19" fill="#0a0a0a" stroke="none" stroke-width="none" transform="translate(-172.56002807617188,19.775490933931795)" style="fill: rgb(10, 10, 10);"></path></g><g class="path" style="transform: matrix(1, 0, 0, 1, 0, 0); transform-origin: -102.09003257751465px -4.054508209228516px; animation: tremble-9944c60d-1e41-4672-bcab-daef376c9e72 11.11111111111111s linear -5.641025641025641s infinite normal forwards;"><path d="M55.51-31.45L56.13-32.89L56.13-32.89Q56.72-32.54 57.54-32.07L57.54-32.07L57.54-32.07Q58.36-31.60 59.45-31.17L59.45-31.17L59.45-31.17Q60.55-30.74 61.89-30.37L61.89-30.37L61.89-30.37Q63.24-30 64.84-29.84L64.84-29.84L64.84-29.84Q65.39-33.36 66.25-36.19L66.25-36.19L66.25-36.19Q67.11-39.02 68.14-41.04L68.14-41.04L68.14-41.04Q69.18-43.05 70.29-44.12L70.29-44.12L70.29-44.12Q71.41-45.20 72.46-45.20L72.46-45.20L72.46-45.20Q73.67-45.20 74.18-44.26L74.18-44.26L74.18-44.26Q74.69-43.32 74.69-41.76L74.69-41.76L74.69-41.76Q74.69-40.63 74.45-39.26L74.45-39.26L74.45-39.26Q74.22-37.89 73.83-36.35L73.83-36.35L73.83-36.35Q73.44-34.80 72.89-33.14L72.89-33.14L72.89-33.14Q72.34-31.48 71.76-29.84L71.76-29.84L71.76-29.84Q75.66-30.20 78.96-31.13L78.96-31.13L78.96-31.13Q82.27-32.07 84.69-33.05L84.69-33.05L85.43-31.60L85.43-31.60Q82.23-30.39 78.79-29.43L78.79-29.43L78.79-29.43Q75.35-28.48 71.09-28.24L71.09-28.24L71.09-28.24Q70.12-25.70 69.08-23.42L69.08-23.42L69.08-23.42Q68.05-21.13 67.19-19.45L67.19-19.45L67.19-19.45Q67.23-17.27 67.44-14.71L67.44-14.71L67.44-14.71Q67.66-12.15 68.30-9.92L68.30-9.92L68.30-9.92Q68.95-7.70 70.14-6.21L70.14-6.21L70.14-6.21Q71.33-4.73 73.28-4.73L73.28-4.73L73.28-4.73Q74.92-4.73 76.29-6.11L76.29-6.11L76.29-6.11Q77.66-7.50 78.81-9.63L78.81-9.63L78.81-9.63Q79.96-11.76 80.94-14.30L80.94-14.30L80.94-14.30Q81.91-16.84 82.77-19.10L82.77-19.10L84.30-18.71L84.30-18.71Q83.75-17.30 83.13-15.55L83.13-15.55L83.13-15.55Q82.50-13.79 81.72-11.97L81.72-11.97L81.72-11.97Q80.94-10.16 80-8.46L80-8.46L80-8.46Q79.06-6.76 77.93-5.41L77.93-5.41L77.93-5.41Q76.80-4.06 75.43-3.26L75.43-3.26L75.43-3.26Q74.06-2.46 72.46-2.46L72.46-2.46L72.46-2.46Q70.74-2.46 69.24-3.24L69.24-3.24L69.24-3.24Q67.73-4.02 66.62-6.04L66.62-6.04L66.62-6.04Q65.51-8.05 64.86-11.50L64.86-11.50L64.86-11.50Q64.22-14.96 64.22-20.31L64.22-20.31L64.22-20.31Q64.22-24.61 64.69-28.32L64.69-28.32L64.69-28.32Q61.33-28.75 59.04-29.67L59.04-29.67L59.04-29.67Q56.76-30.59 55.51-31.45L55.51-31.45zM72.70-43.13L72.70-43.13L72.70-43.13Q72.34-43.13 71.64-42.42L71.64-42.42L71.64-42.42Q70.94-41.72 70.16-40.14L70.16-40.14L70.16-40.14Q69.38-38.55 68.65-36.00L68.65-36.00L68.65-36.00Q67.93-33.44 67.50-29.69L67.50-29.69L68.24-29.69L70.16-29.69L70.16-29.69Q70.86-31.64 71.39-33.48L71.39-33.48L71.39-33.48Q71.91-35.31 72.30-36.89L72.30-36.89L72.30-36.89Q72.70-38.48 72.89-39.75L72.89-39.75L72.89-39.75Q73.09-41.02 73.09-41.84L73.09-41.84L73.09-41.84Q73.09-43.13 72.70-43.13zM67.19-22.66L67.19-22.58L67.19-22.58Q67.85-23.95 68.44-25.33L68.44-25.33L68.44-25.33Q69.02-26.72 69.57-28.16L69.57-28.16L68.13-28.16L67.34-28.16L67.34-28.16Q67.27-26.91 67.23-25.53L67.23-25.53L67.23-25.53Q67.19-24.14 67.19-22.66L67.19-22.66" fill="#0a0a0a" stroke="none" stroke-width="none" transform="translate(-172.56002807617188,19.775490933931795)" style="fill: rgb(10, 10, 10);"></path></g><g class="path" style="transform: matrix(1, 0, 0, 1, 0, 0); transform-origin: -74.45502471923828px -5.519508361816406px; animation: tremble-9944c60d-1e41-4672-bcab-daef376c9e72 11.11111111111111s linear -5.076923076923077s infinite normal forwards;"><path d="M95.74-44.06L95.74-44.06L95.74-44.06Q95.74-41.60 94.90-38.55L94.90-38.55L94.90-38.55Q94.06-35.51 92.62-31.91L92.62-31.91L92.62-31.91Q91.17-28.32 89.24-24.20L89.24-24.20L89.24-24.20Q87.30-20.08 85.12-15.51L85.12-15.51L85.12-15.51Q84.92-13.63 84.79-11.74L84.79-11.74L84.79-11.74Q84.65-9.84 84.53-7.93L84.53-7.93L84.53-7.93Q85.04-9.22 85.80-10.92L85.80-10.92L85.80-10.92Q86.56-12.62 87.52-14.43L87.52-14.43L87.52-14.43Q88.48-16.25 89.61-18.01L89.61-18.01L89.61-18.01Q90.74-19.77 92.01-21.15L92.01-21.15L92.01-21.15Q93.28-22.54 94.71-23.40L94.71-23.40L94.71-23.40Q96.13-24.26 97.66-24.26L97.66-24.26L97.66-24.26Q98.71-24.26 99.57-23.87L99.57-23.87L99.57-23.87Q100.43-23.48 101.04-22.77L101.04-22.77L101.04-22.77Q101.64-22.07 101.97-21.13L101.97-21.13L101.97-21.13Q102.30-20.20 102.30-19.10L102.30-19.10L102.30-19.10Q102.30-17.70 101.93-16.07L101.93-16.07L101.93-16.07Q101.56-14.45 101.09-12.77L101.09-12.77L101.09-12.77Q100.63-11.09 100.25-9.41L100.25-9.41L100.25-9.41Q99.88-7.73 99.88-6.25L99.88-6.25L99.88-6.25Q99.88-5.04 100.47-4.20L100.47-4.20L100.47-4.20Q101.05-3.36 102.62-3.36L102.62-3.36L102.62-3.36Q103.71-3.36 104.77-4.26L104.77-4.26L104.77-4.26Q105.82-5.16 106.80-6.58L106.80-6.58L106.80-6.58Q107.77-8.01 108.61-9.79L108.61-9.79L108.61-9.79Q109.45-11.56 110.18-13.32L110.18-13.32L110.18-13.32Q110.90-15.08 111.46-16.62L111.46-16.62L111.46-16.62Q112.03-18.16 112.38-19.10L112.38-19.10L113.91-18.71L113.91-18.71Q113.24-16.95 112.54-15L112.54-15L112.54-15Q111.84-13.05 111.04-11.11L111.04-11.11L111.04-11.11Q110.23-9.18 109.30-7.42L109.30-7.42L109.30-7.42Q108.36-5.66 107.25-4.32L107.25-4.32L107.25-4.32Q106.13-2.97 104.80-2.17L104.80-2.17L104.80-2.17Q103.48-1.37 101.84-1.37L101.84-1.37L101.84-1.37Q100.35-1.37 99.38-1.80L99.38-1.80L99.38-1.80Q98.40-2.23 97.83-2.97L97.83-2.97L97.83-2.97Q97.27-3.71 97.03-4.75L97.03-4.75L97.03-4.75Q96.80-5.78 96.80-7.03L96.80-7.03L96.80-7.03Q96.80-8.36 97.19-10.06L97.19-10.06L97.19-10.06Q97.58-11.76 98.07-13.57L98.07-13.57L98.07-13.57Q98.55-15.39 98.95-17.21L98.95-17.21L98.95-17.21Q99.34-19.02 99.34-20.55L99.34-20.55L99.34-20.55Q99.34-21.41 98.93-22.07L98.93-22.07L98.93-22.07Q98.52-22.73 97.50-22.73L97.50-22.73L97.50-22.73Q95.90-22.73 94.41-21.58L94.41-21.58L94.41-21.58Q92.93-20.43 91.60-18.59L91.60-18.59L91.60-18.59Q90.27-16.76 89.10-14.45L89.10-14.45L89.10-14.45Q87.93-12.15 86.95-9.86L86.95-9.86L86.95-9.86Q85.98-7.58 85.21-5.51L85.21-5.51L85.21-5.51Q84.45-3.44 83.91-2.07L83.91-2.07L82.38-2.30L82.38-2.30Q82.38-2.50 82.36-2.83L82.36-2.83L82.36-2.83Q82.34-3.16 82.34-3.75L82.34-3.75L82.34-3.75Q82.34-4.34 82.32-5.21L82.32-5.21L82.32-5.21Q82.30-6.09 82.30-7.34L82.30-7.34L82.30-7.34Q82.30-11.02 82.50-17.03L82.50-17.03L82.50-17.03Q82.70-23.05 83.44-31.45L83.44-31.45L83.44-31.45Q83.75-35.55 84.38-38.46L84.38-38.46L84.38-38.46Q85-41.37 85.78-43.34L85.78-43.34L85.78-43.34Q86.56-45.31 87.44-46.48L87.44-46.48L87.44-46.48Q88.32-47.66 89.14-48.26L89.14-48.26L89.14-48.26Q89.96-48.87 90.66-49.04L90.66-49.04L90.66-49.04Q91.37-49.22 91.84-49.22L91.84-49.22L91.84-49.22Q93.63-49.22 94.69-47.81L94.69-47.81L94.69-47.81Q95.74-46.41 95.74-44.06zM91.91-47.62L91.91-47.62L91.91-47.62Q90.90-47.62 90.10-46.62L90.10-46.62L90.10-46.62Q89.30-45.63 88.65-43.81L88.65-43.81L88.65-43.81Q88.01-41.99 87.54-39.45L87.54-39.45L87.54-39.45Q87.07-36.91 86.68-33.81L86.68-33.81L86.68-33.81Q86.29-30.70 86.00-27.13L86.00-27.13L86.00-27.13Q85.70-23.55 85.43-19.69L85.43-19.69L85.43-19.69Q87.27-23.20 88.85-26.66L88.85-26.66L88.85-26.66Q90.43-30.12 91.60-33.28L91.60-33.28L91.60-33.28Q92.77-36.45 93.46-39.20L93.46-39.20L93.46-39.20Q94.14-41.95 94.14-44.06L94.14-44.06L94.14-44.06Q94.14-44.69 94.04-45.33L94.04-45.33L94.04-45.33Q93.95-45.98 93.69-46.48L93.69-46.48L93.69-46.48Q93.44-46.99 93.01-47.30L93.01-47.30L93.01-47.30Q92.58-47.62 91.91-47.62" fill="#0a0a0a" stroke="none" stroke-width="none" transform="translate(-172.56002807617188,19.775490933931795)" style="fill: rgb(10, 10, 10);"></path></g><g class="path" style="transform: matrix(1, 0, 0, 1, 0, 0); transform-origin: -52.77503204345703px 3.665492057800293px; animation: tremble-9944c60d-1e41-4672-bcab-daef376c9e72 11.11111111111111s linear -4.512820512820513s infinite normal forwards;"><path d="M116.88-4.06L116.88-4.06L116.88-4.06Q114.41-4.06 112.79-6.05L112.79-6.05L112.79-6.05Q111.17-8.05 111.17-12.07L111.17-12.07L111.17-12.07Q111.17-14.73 112.25-18.85L112.25-18.85L112.25-18.85Q113.32-22.97 115.98-28.16L115.98-28.16L117.42-27.77L117.42-27.77Q117.19-26.76 116.66-25L116.66-25L116.66-25Q116.13-23.24 115.61-21.07L115.61-21.07L115.61-21.07Q115.08-18.91 114.69-16.54L114.69-16.54L114.69-16.54Q114.30-14.18 114.30-11.99L114.30-11.99L114.30-11.99Q114.30-10.16 114.57-9.00L114.57-9.00L114.57-9.00Q114.84-7.85 115.29-7.21L115.29-7.21L115.29-7.21Q115.74-6.56 116.35-6.33L116.35-6.33L116.35-6.33Q116.95-6.09 117.66-6.09L117.66-6.09L117.66-6.09Q118.79-6.09 119.80-6.80L119.80-6.80L119.80-6.80Q120.82-7.50 121.74-8.65L121.74-8.65L121.74-8.65Q122.66-9.80 123.46-11.23L123.46-11.23L123.46-11.23Q124.26-12.66 124.90-14.10L124.90-14.10L124.90-14.10Q125.55-15.55 126.05-16.86L126.05-16.86L126.05-16.86Q126.56-18.16 126.88-19.10L126.88-19.10L128.40-18.71L128.40-18.71Q127.97-17.54 127.40-16.00L127.40-16.00L127.40-16.00Q126.84-14.45 126.11-12.81L126.11-12.81L126.11-12.81Q125.39-11.17 124.49-9.61L124.49-9.61L124.49-9.61Q123.59-8.05 122.46-6.82L122.46-6.82L122.46-6.82Q121.33-5.59 119.94-4.82L119.94-4.82L119.94-4.82Q118.55-4.06 116.88-4.06" fill="#0a0a0a" stroke="none" stroke-width="none" transform="translate(-172.56002807617188,19.775490933931795)" style="fill: rgb(10, 10, 10);"></path></g><g class="path" style="transform: matrix(1, 0, 0, 1, 0, 0); transform-origin: -53.16503143310547px -20.8695068359375px; animation: tremble-9944c60d-1e41-4672-bcab-daef376c9e72 11.11111111111111s linear -3.948717948717949s infinite normal forwards;"><path d="M123.20-40.47L123.20-40.47L123.20-40.47Q123.20-39.10 122.15-38.36L122.15-38.36L122.15-38.36Q121.09-37.62 119.49-37.62L119.49-37.62L119.49-37.62Q118.67-37.62 117.95-37.87L117.95-37.87L117.95-37.87Q117.23-38.13 116.70-38.54L116.70-38.54L116.70-38.54Q116.17-38.95 115.88-39.51L115.88-39.51L115.88-39.51Q115.59-40.08 115.59-40.70L115.59-40.70L115.59-40.70Q115.59-42.03 116.62-42.85L116.62-42.85L116.62-42.85Q117.66-43.67 119.02-43.67L119.02-43.67L119.02-43.67Q120-43.67 120.78-43.38L120.78-43.38L120.78-43.38Q121.56-43.09 122.11-42.62L122.11-42.62L122.11-42.62Q122.66-42.15 122.93-41.58L122.93-41.58L122.93-41.58Q123.20-41.02 123.20-40.47zM121.09-40.47L121.09-40.47L121.09-40.47Q121.09-40.86 120.76-41.19L120.76-41.19L120.76-41.19Q120.43-41.52 119.77-41.52L119.77-41.52L119.77-41.52Q118.55-41.52 118.55-40.63L118.55-40.63L118.55-40.63Q118.55-40.20 118.93-39.90L118.93-39.90L118.93-39.90Q119.30-39.61 119.92-39.61L119.92-39.61L119.92-39.61Q120.51-39.61 120.80-39.86L120.80-39.86L120.80-39.86Q121.09-40.12 121.09-40.47" fill="#0a0a0a" stroke="none" stroke-width="none" transform="translate(-172.56002807617188,19.775490933931795)" style="fill: rgb(10, 10, 10);"></path></g><g class="path" style="transform: matrix(1, 0, 0, 1, 0, 0); transform-origin: -28.045032501220703px 5.340492248535156px; animation: tremble-9944c60d-1e41-4672-bcab-daef376c9e72 11.11111111111111s linear -3.3846153846153846s infinite normal forwards;"><path d="M128.40-18.71L126.88-19.10L126.88-19.10Q127.46-20.63 128.14-22.01L128.14-22.01L128.14-22.01Q128.83-23.40 129.61-24.45L129.61-24.45L129.61-24.45Q130.39-25.51 131.31-26.15L131.31-26.15L131.31-26.15Q132.23-26.80 133.36-26.80L133.36-26.80L133.36-26.80Q133.91-26.80 134.61-26.56L134.61-26.56L134.61-26.56Q135.31-26.33 135.96-25.63L135.96-25.63L135.96-25.63Q136.60-24.92 137.03-23.59L137.03-23.59L137.03-23.59Q137.46-22.27 137.46-20.08L137.46-20.08L137.46-20.08Q137.46-18.95 137.34-17.58L137.34-17.58L137.34-17.58Q137.23-16.21 137.11-14.88L137.11-14.88L137.11-14.88Q138.32-17.46 139.51-19.24L139.51-19.24L139.51-19.24Q140.70-21.02 141.86-22.09L141.86-22.09L141.86-22.09Q143.01-23.16 144.14-23.65L144.14-23.65L144.14-23.65Q145.27-24.14 146.41-24.14L146.41-24.14L146.41-24.14Q146.91-24.14 147.60-23.91L147.60-23.91L147.60-23.91Q148.28-23.67 148.89-23.09L148.89-23.09L148.89-23.09Q149.49-22.50 149.90-21.48L149.90-21.48L149.90-21.48Q150.31-20.47 150.31-18.87L150.31-18.87L150.31-18.87Q150.31-17.58 150.12-16.29L150.12-16.29L150.12-16.29Q149.92-15 149.69-13.79L149.69-13.79L149.69-13.79Q149.45-12.58 149.26-11.50L149.26-11.50L149.26-11.50Q149.06-10.43 149.06-9.61L149.06-9.61L149.06-9.61Q149.06-7.66 149.77-6.62L149.77-6.62L149.77-6.62Q150.47-5.59 151.91-5.59L151.91-5.59L151.91-5.59Q153.09-5.59 154.14-6.46L154.14-6.46L154.14-6.46Q155.20-7.34 156.11-8.71L156.11-8.71L156.11-8.71Q157.03-10.08 157.79-11.72L157.79-11.72L157.79-11.72Q158.55-13.36 159.12-14.86L159.12-14.86L159.12-14.86Q159.69-16.37 160.08-17.52L160.08-17.52L160.08-17.52Q160.47-18.67 160.63-19.10L160.63-19.10L162.15-18.71L162.15-18.71Q161.60-17.34 161.00-15.68L161.00-15.68L161.00-15.68Q160.39-14.02 159.65-12.34L159.65-12.34L159.65-12.34Q158.91-10.66 158.05-9.08L158.05-9.08L158.05-9.08Q157.19-7.50 156.13-6.29L156.13-6.29L156.13-6.29Q155.08-5.08 153.85-4.34L153.85-4.34L153.85-4.34Q152.62-3.59 151.13-3.59L151.13-3.59L151.13-3.59Q149.88-3.59 148.96-4.08L148.96-4.08L148.96-4.08Q148.05-4.57 147.42-5.39L147.42-5.39L147.42-5.39Q146.80-6.21 146.48-7.34L146.48-7.34L146.48-7.34Q146.17-8.48 146.17-9.77L146.17-9.77L146.17-9.77Q146.17-11.21 146.43-12.73L146.43-12.73L146.43-12.73Q146.68-14.26 146.97-15.66L146.97-15.66L146.97-15.66Q147.27-17.07 147.52-18.26L147.52-18.26L147.52-18.26Q147.77-19.45 147.77-20.23L147.77-20.23L147.77-20.23Q147.77-21.45 147.30-22.05L147.30-22.05L147.30-22.05Q146.84-22.66 146.02-22.66L146.02-22.66L146.02-22.66Q144.88-22.66 143.81-21.84L143.81-21.84L143.81-21.84Q142.73-21.02 141.74-19.65L141.74-19.65L141.74-19.65Q140.74-18.28 139.84-16.52L139.84-16.52L139.84-16.52Q138.95-14.77 138.18-12.91L138.18-12.91L138.18-12.91Q137.42-11.05 136.78-9.22L136.78-9.22L136.78-9.22Q136.13-7.38 135.66-5.90L135.66-5.90L135.66-5.90Q135.20-4.41 134.86-3.38L134.86-3.38L134.86-3.38Q134.53-2.34 134.41-2.07L134.41-2.07L132.15-2.46L132.15-2.46Q132.62-4.77 133.01-7.32L133.01-7.32L133.01-7.32Q133.40-9.88 133.69-12.36L133.69-12.36L133.69-12.36Q133.98-14.84 134.16-17.11L134.16-17.11L134.16-17.11Q134.34-19.38 134.34-21.13L134.34-21.13L134.34-21.13Q134.34-23.52 134.02-24.36L134.02-24.36L134.02-24.36Q133.71-25.20 132.89-25.20L132.89-25.20L132.89-25.20Q132.19-25.20 131.56-24.67L131.56-24.67L131.56-24.67Q130.94-24.14 130.41-23.26L130.41-23.26L130.41-23.26Q129.88-22.38 129.38-21.21L129.38-21.21L129.38-21.21Q128.87-20.04 128.40-18.71L128.40-18.71" fill="#0a0a0a" stroke="none" stroke-width="none" transform="translate(-172.56002807617188,19.775490933931795)" style="fill: rgb(10, 10, 10);"></path></g><g class="path" style="transform: matrix(1, 0, 0, 1, 0, 0); transform-origin: -1.8000259399414062px 14.465492248535156px; animation: tremble-9944c60d-1e41-4672-bcab-daef376c9e72 11.11111111111111s linear -2.8205128205128207s infinite normal forwards;"><path d="M167.42 18.48L167.42 18.48L167.42 18.48Q165.16 18.48 163.42 17.81L163.42 17.81L163.42 17.81Q161.68 17.15 160.51 16.00L160.51 16.00L160.51 16.00Q159.34 14.84 158.75 13.26L158.75 13.26L158.75 13.26Q158.16 11.68 158.16 9.84L158.16 9.84L158.16 9.84Q158.16 8.20 158.75 6.76L158.75 6.76L158.75 6.76Q159.34 5.31 160.33 4.26L160.33 4.26L160.33 4.26Q161.33 3.20 162.64 2.60L162.64 2.60L162.64 2.60Q163.95 1.99 165.35 1.99L165.35 1.99L165.35 1.99Q166.72 1.99 168.03 2.75L168.03 2.75L168.03 2.75Q169.34 3.52 170.55 4.88L170.55 4.88L169.26 5.86L169.26 5.86Q168.36 4.73 167.32 4.16L167.32 4.16L167.32 4.16Q166.29 3.59 165.27 3.59L165.27 3.59L165.27 3.59Q164.14 3.59 163.14 4.08L163.14 4.08L163.14 4.08Q162.15 4.57 161.37 5.39L161.37 5.39L161.37 5.39Q160.59 6.21 160.14 7.30L160.14 7.30L160.14 7.30Q159.69 8.40 159.69 9.61L159.69 9.61L159.69 9.61Q159.69 11.17 160.16 12.50L160.16 12.50L160.16 12.50Q160.63 13.83 161.60 14.82L161.60 14.82L161.60 14.82Q162.58 15.82 164.02 16.39L164.02 16.39L164.02 16.39Q165.47 16.95 167.42 16.95L167.42 16.95L167.42 16.95Q170.12 16.95 171.99 15.68L171.99 15.68L171.99 15.68Q173.87 14.41 175.04 12.38L175.04 12.38L175.04 12.38Q176.21 10.35 176.74 7.79L176.74 7.79L176.74 7.79Q177.27 5.23 177.27 2.66L177.27 2.66L177.27-3.44L177.27-6.41L177.27-6.41Q175.59-4.10 173.07-2.66L173.07-2.66L173.07-2.66Q170.55-1.21 167.11-1.21L167.11-1.21L167.11-1.21Q165.63-1.21 164.14-1.70L164.14-1.70L164.14-1.70Q162.66-2.19 161.46-3.36L161.46-3.36L161.46-3.36Q160.27-4.53 159.53-6.52L159.53-6.52L159.53-6.52Q158.79-8.52 158.79-11.52L158.79-11.52L158.79-11.52Q158.79-13.59 159.36-15.68L159.36-15.68L159.36-15.68Q159.92-17.77 160.94-19.73L160.94-19.73L160.94-19.73Q161.95-21.68 163.36-23.40L163.36-23.40L163.36-23.40Q164.77-25.12 166.45-26.39L166.45-26.39L166.45-26.39Q168.13-27.66 170.02-28.38L170.02-28.38L170.02-28.38Q171.91-29.10 173.91-29.10L173.91-29.10L173.91-29.10Q175.16-29.10 176.15-28.71L176.15-28.71L176.15-28.71Q177.15-28.32 177.91-27.70L177.91-27.70L177.91-27.70Q178.67-27.07 179.24-26.31L179.24-26.31L179.24-26.31Q179.80-25.55 180.16-24.80L180.16-24.80L180.16-24.80Q180.70-26.37 181.15-27.40L181.15-27.40L181.15-27.40Q181.60-28.44 181.91-29.02L181.91-29.02L183.36-28.32L183.36-28.32Q183.24-28.09 182.75-26.72L182.75-26.72L182.75-26.72Q182.27-25.35 181.72-22.89L181.72-22.89L181.72-22.89Q181.17-20.43 180.74-16.91L180.74-16.91L180.74-16.91Q180.31-13.40 180.31-8.87L180.31-8.87L180.31-8.87Q180.31-7.85 180.33-6.64L180.33-6.64L180.33-6.64Q180.35-5.43 180.35-4.18L180.35-4.18L180.35-4.18Q180.35-2.93 180.37-1.72L180.37-1.72L180.37-1.72Q180.39-0.51 180.39 0.47L180.39 0.47L180.39 0.47Q180.39 5.86 179.22 9.36L179.22 9.36L179.22 9.36Q178.05 12.85 176.19 14.88L176.19 14.88L176.19 14.88Q174.34 16.91 172.01 17.70L172.01 17.70L172.01 17.70Q169.69 18.48 167.42 18.48zM169.69-3.59L169.69-3.59L169.69-3.59Q171.02-3.59 172.17-4.02L172.17-4.02L172.17-4.02Q173.32-4.45 174.28-5.18L174.28-5.18L174.28-5.18Q175.23-5.90 176.04-6.89L176.04-6.89L176.04-6.89Q176.84-7.89 177.42-9.02L177.42-9.02L177.42-9.02Q177.66-13.63 178.26-17.01L178.26-17.01L178.26-17.01Q178.87-20.39 179.53-22.81L179.53-22.81L179.53-22.81Q179.26-23.75 178.79-24.61L178.79-24.61L178.79-24.61Q178.32-25.47 177.64-26.13L177.64-26.13L177.64-26.13Q176.95-26.80 176.04-27.21L176.04-27.21L176.04-27.21Q175.12-27.62 173.91-27.62L173.91-27.62L173.91-27.62Q172.42-27.62 170.43-26.66L170.43-26.66L170.43-26.66Q168.44-25.70 166.64-23.77L166.64-23.77L166.64-23.77Q164.84-21.84 163.61-18.95L163.61-18.95L163.61-18.95Q162.38-16.05 162.38-12.23L162.38-12.23L162.38-12.23Q162.38-10.35 162.81-8.75L162.81-8.75L162.81-8.75Q163.24-7.15 164.14-6.02L164.14-6.02L164.14-6.02Q165.04-4.88 166.43-4.24L166.43-4.24L166.43-4.24Q167.81-3.59 169.69-3.59" fill="#0a0a0a" stroke="none" stroke-width="none" transform="translate(-172.56002807617188,19.775490933931795)" style="fill: rgb(10, 10, 10);"></path></g><g class="path" style="transform: matrix(1, 0, 0, 1, 0, 0); transform-origin: 41.564971923828125px 4.325492858886719px; animation: tremble-9944c60d-1e41-4672-bcab-daef376c9e72 11.11111111111111s linear -2.2564102564102564s infinite normal forwards;"><path d="M220.31-47.93L220.31-47.93L220.31-47.93Q220.31-44.96 219.24-41.60L219.24-41.60L219.24-41.60Q218.16-38.24 216.45-34.65L216.45-34.65L216.45-34.65Q214.73-31.05 212.56-27.32L212.56-27.32L212.56-27.32Q210.39-23.59 208.24-19.92L208.24-19.92L208.24-19.92Q207.81-16.29 207.44-12.70L207.44-12.70L207.44-12.70Q207.07-9.10 206.82-5.88L206.82-5.88L206.82-5.88Q206.56-2.66 206.41 0.04L206.41 0.04L206.41 0.04Q206.25 2.73 206.25 4.57L206.25 4.57L206.25 4.57Q206.25 8.32 206.62 11.31L206.62 11.31L206.62 11.31Q206.99 14.30 207.75 16.39L207.75 16.39L207.75 16.39Q208.52 18.48 209.63 19.59L209.63 19.59L209.63 19.59Q210.74 20.70 212.27 20.70L212.27 20.70L212.27 20.70Q213.13 20.70 213.71 20.16L213.71 20.16L213.71 20.16Q214.30 19.61 214.69 18.75L214.69 18.75L214.69 18.75Q215.08 17.89 215.27 16.80L215.27 16.80L215.27 16.80Q215.47 15.70 215.57 14.61L215.57 14.61L215.57 14.61Q215.66 13.52 215.68 12.54L215.68 12.54L215.68 12.54Q215.70 11.56 215.70 10.90L215.70 10.90L215.70 10.90Q215.70 6.52 215.12 2.56L215.12 2.56L215.12 2.56Q214.53-1.41 213.67-4.26L213.67-4.26L213.36-4.26L213.36-4.26Q212.42-4.26 211.58-4.51L211.58-4.51L211.58-4.51Q210.74-4.77 210.08-5.23L210.08-5.23L210.08-5.23Q209.41-5.70 209.02-6.33L209.02-6.33L209.02-6.33Q208.63-6.95 208.63-7.70L208.63-7.70L208.63-7.70Q208.63-8.75 209.28-9.49L209.28-9.49L209.28-9.49Q209.92-10.23 210.90-10.23L210.90-10.23L210.90-10.23Q212.11-10.23 213.20-9.08L213.20-9.08L213.20-9.08Q214.30-7.93 215.20-6.02L215.20-6.02L215.20-6.02Q216.76-6.64 218.07-8.20L218.07-8.20L218.07-8.20Q219.38-9.77 220.43-11.70L220.43-11.70L220.43-11.70Q221.48-13.63 222.29-15.63L222.29-15.63L222.29-15.63Q223.09-17.62 223.67-19.10L223.67-19.10L225.20-18.71L225.20-18.71Q224.57-17.03 223.71-14.90L223.71-14.90L223.71-14.90Q222.85-12.77 221.72-10.76L221.72-10.76L221.72-10.76Q220.59-8.75 219.12-7.09L219.12-7.09L219.12-7.09Q217.66-5.43 215.78-4.73L215.78-4.73L215.78-4.73Q216.41-3.09 216.91-1.19L216.91-1.19L216.91-1.19Q217.42 0.70 217.79 2.70L217.79 2.70L217.79 2.70Q218.16 4.69 218.36 6.68L218.36 6.68L218.36 6.68Q218.55 8.67 218.55 10.55L218.55 10.55L218.55 10.55Q218.55 13.05 218.14 15.20L218.14 15.20L218.14 15.20Q217.73 17.34 216.93 18.93L216.93 18.93L216.93 18.93Q216.13 20.51 214.94 21.41L214.94 21.41L214.94 21.41Q213.75 22.30 212.15 22.30L212.15 22.30L212.15 22.30Q210 22.30 208.50 21.27L208.50 21.27L208.50 21.27Q206.99 20.23 205.98 18.52L205.98 18.52L205.98 18.52Q204.96 16.80 204.38 14.63L204.38 14.63L204.38 14.63Q203.79 12.46 203.50 10.20L203.50 10.20L203.50 10.20Q203.20 7.93 203.13 5.76L203.13 5.76L203.13 5.76Q203.05 3.59 203.05 1.91L203.05 1.91L203.05 1.91Q203.05-1.95 203.40-6.76L203.40-6.76L203.40-6.76Q203.75-11.56 204.34-16.60L204.34-16.60L204.34-16.60Q204.92-21.64 205.64-26.58L205.64-26.58L205.64-26.58Q206.37-31.52 207.09-35.72L207.09-35.72L207.09-35.72Q207.81-39.92 208.48-43.05L208.48-43.05L208.48-43.05Q209.14-46.17 209.61-47.54L209.61-47.54L209.61-47.54Q209.92-48.52 210.45-49.53L210.45-49.53L210.45-49.53Q210.98-50.55 211.72-51.37L211.72-51.37L211.72-51.37Q212.46-52.19 213.42-52.70L213.42-52.70L213.42-52.70Q214.38-53.20 215.63-53.20L215.63-53.20L215.63-53.20Q217.77-53.20 219.04-51.80L219.04-51.80L219.04-51.80Q220.31-50.39 220.31-47.93zM211.52-44.73L211.52-44.73L211.52-44.73Q211.33-43.71 211.00-41.66L211.00-41.66L211.00-41.66Q210.66-39.61 210.29-36.82L210.29-36.82L210.29-36.82Q209.92-34.02 209.49-30.64L209.49-30.64L209.49-30.64Q209.06-27.27 208.63-23.67L208.63-23.67L208.63-23.67Q210.78-27.34 212.62-30.68L212.62-30.68L212.62-30.68Q214.45-34.02 215.80-37.05L215.80-37.05L215.80-37.05Q217.15-40.08 217.93-42.75L217.93-42.75L217.93-42.75Q218.71-45.43 218.71-47.85L218.71-47.85L218.71-47.85Q218.71-49.41 218.03-50.55L218.03-50.55L218.03-50.55Q217.34-51.68 215.78-51.68L215.78-51.68L215.78-51.68Q214.65-51.68 213.89-50.90L213.89-50.90L213.89-50.90Q213.13-50.12 212.66-49.02L212.66-49.02L212.66-49.02Q212.19-47.93 211.93-46.74L211.93-46.74L211.93-46.74Q211.68-45.55 211.52-44.73zM210.23-7.77L210.23-7.77L210.23-7.77Q210.23-7.03 211.15-6.39L211.15-6.39L211.15-6.39Q212.07-5.74 213.28-5.66L213.28-5.66L213.28-5.66Q212.73-7.15 212.17-7.93L212.17-7.93L212.17-7.93Q211.60-8.71 211.05-8.71L211.05-8.71L211.05-8.71Q210.74-8.71 210.49-8.48L210.49-8.48L210.49-8.48Q210.23-8.24 210.23-7.77" fill="#0a0a0a" stroke="none" stroke-width="none" transform="translate(-172.56002807617188,19.775490933931795)" style="fill: rgb(10, 10, 10);"></path></g><g class="path" style="transform: matrix(1, 0, 0, 1, 0, 0); transform-origin: 64.62996673583984px 5.070491790771484px; animation: tremble-9944c60d-1e41-4672-bcab-daef376c9e72 11.11111111111111s linear -1.6923076923076923s infinite normal forwards;"><path d="M233.44-3.52L233.44-3.52L233.44-3.52Q235.63-3.52 237.64-5.12L237.64-5.12L237.64-5.12Q239.65-6.72 240.78-9.77L240.78-9.77L240.47-9.77L240.47-9.77Q238.05-9.77 236.00-10.59L236.00-10.59L236.00-10.59Q233.95-11.41 232.44-12.87L232.44-12.87L232.44-12.87Q230.94-14.34 230.08-16.39L230.08-16.39L230.08-16.39Q229.22-18.44 229.22-20.90L229.22-20.90L229.22-20.90Q229.22-22.27 229.59-23.67L229.59-23.67L229.59-23.67Q229.96-25.08 230.74-26.19L230.74-26.19L230.74-26.19Q231.52-27.30 232.77-28.01L232.77-28.01L232.77-28.01Q234.02-28.71 235.74-28.71L235.74-28.71L235.74-28.71Q237.15-28.71 238.52-28.14L238.52-28.14L238.52-28.14Q239.88-27.58 240.98-26.21L240.98-26.21L240.98-26.21Q242.07-24.84 242.75-22.52L242.75-22.52L242.75-22.52Q243.44-20.20 243.44-16.64L243.44-16.64L243.44-16.64Q243.44-15.31 243.32-14.00L243.32-14.00L243.32-14.00Q243.20-12.70 242.89-11.45L242.89-11.45L242.89-11.45Q244.41-11.72 245.61-12.42L245.61-12.42L245.61-12.42Q246.80-13.13 247.71-14.12L247.71-14.12L247.71-14.12Q248.63-15.12 249.34-16.39L249.34-16.39L249.34-16.39Q250.04-17.66 250.63-19.10L250.63-19.10L252.15-18.71L252.15-18.71Q251.33-16.48 250.25-14.92L250.25-14.92L250.25-14.92Q249.18-13.36 247.95-12.30L247.95-12.30L247.95-12.30Q246.72-11.25 245.37-10.68L245.37-10.68L245.37-10.68Q244.02-10.12 242.58-9.92L242.58-9.92L242.58-9.92Q242.03-8.01 241.13-6.33L241.13-6.33L241.13-6.33Q240.23-4.65 238.95-3.40L238.95-3.40L238.95-3.40Q237.66-2.15 235.96-1.43L235.96-1.43L235.96-1.43Q234.26-0.70 232.15-0.70L232.15-0.70L232.15-0.70Q230.39-0.70 228.61-1.43L228.61-1.43L228.61-1.43Q226.84-2.15 225.41-3.65L225.41-3.65L225.41-3.65Q223.98-5.16 223.11-7.44L223.11-7.44L223.11-7.44Q222.23-9.73 222.23-12.89L222.23-12.89L222.23-12.89Q222.23-14.96 222.71-16.95L222.71-16.95L222.71-16.95Q223.20-18.95 224.08-20.72L224.08-20.72L224.08-20.72Q224.96-22.50 226.17-24.04L226.17-24.04L226.17-24.04Q227.38-25.59 228.79-26.72L228.79-26.72L229.38-25.74L229.38-25.74Q228.48-24.92 227.66-23.71L227.66-23.71L227.66-23.71Q226.84-22.50 226.17-21.04L226.17-21.04L226.17-21.04Q225.51-19.57 225.12-17.95L225.12-17.95L225.12-17.95Q224.73-16.33 224.73-14.73L224.73-14.73L224.73-14.73Q224.73-11.56 225.53-9.41L225.53-9.41L225.53-9.41Q226.33-7.27 227.58-5.96L227.58-5.96L227.58-5.96Q228.83-4.65 230.39-4.08L230.39-4.08L230.39-4.08Q231.95-3.52 233.44-3.52zM235.66-27.19L235.66-27.19L235.66-27.19Q234.61-27.19 233.71-26.74L233.71-26.74L233.71-26.74Q232.81-26.29 232.15-25.51L232.15-25.51L232.15-25.51Q231.48-24.73 231.09-23.63L231.09-23.63L231.09-23.63Q230.70-22.54 230.70-21.21L230.70-21.21L230.70-21.21Q230.70-18.91 231.48-17.07L231.48-17.07L231.48-17.07Q232.27-15.23 233.61-13.95L233.61-13.95L233.61-13.95Q234.96-12.66 236.76-11.97L236.76-11.97L236.76-11.97Q238.55-11.29 240.63-11.29L240.63-11.29L241.37-11.29L241.37-11.29Q241.68-12.50 241.80-13.83L241.80-13.83L241.80-13.83Q241.91-15.16 241.91-16.72L241.91-16.72L241.91-16.72Q241.84-19.73 241.31-21.74L241.31-21.74L241.31-21.74Q240.78-23.75 239.96-24.96L239.96-24.96L239.96-24.96Q239.14-26.17 238.03-26.68L238.03-26.68L238.03-26.68Q236.91-27.19 235.66-27.19" fill="#0a0a0a" stroke="none" stroke-width="none" transform="translate(-172.56002807617188,19.775490933931795)" style="fill: rgb(10, 10, 10);"></path></g><g class="path" style="transform: matrix(1, 0, 0, 1, 0, 0); transform-origin: 93.25996398925781px 5.810491561889648px; animation: tremble-9944c60d-1e41-4672-bcab-daef376c9e72 11.11111111111111s linear -1.1282051282051282s infinite normal forwards;"><path d="M265.59-9.02L265.59-9.02L265.59-9.02Q264.38-6.84 263.24-5.39L263.24-5.39L263.24-5.39Q262.11-3.95 261.00-3.09L261.00-3.09L261.00-3.09Q259.88-2.23 258.75-1.88L258.75-1.88L258.75-1.88Q257.62-1.52 256.41-1.52L256.41-1.52L256.41-1.52Q255.43-1.52 254.18-1.84L254.18-1.84L254.18-1.84Q252.93-2.15 251.82-3.14L251.82-3.14L251.82-3.14Q250.70-4.14 249.94-6.02L249.94-6.02L249.94-6.02Q249.18-7.89 249.18-11.05L249.18-11.05L249.18-11.05Q249.18-14.22 249.92-17.01L249.92-17.01L249.92-17.01Q250.66-19.80 251.56-21.91L251.56-21.91L251.56-21.91Q252.62-24.34 253.98-26.41L253.98-26.41L255.43-25.94L255.43-25.94Q255.39-25.90 255.18-25.23L255.18-25.23L255.18-25.23Q254.96-24.57 254.63-23.44L254.63-23.44L254.63-23.44Q254.30-22.30 253.93-20.82L253.93-20.82L253.93-20.82Q253.55-19.34 253.22-17.68L253.22-17.68L253.22-17.68Q252.89-16.02 252.68-14.30L252.68-14.30L252.68-14.30Q252.46-12.58 252.46-10.98L252.46-10.98L252.46-10.98Q252.46-7.30 253.77-5.18L253.77-5.18L253.77-5.18Q255.08-3.05 257.19-3.05L257.19-3.05L257.19-3.05Q259.53-3.05 261.72-5.76L261.72-5.76L261.72-5.76Q263.91-8.48 265.90-13.36L265.90-13.36L265.90-13.36Q266.25-15.63 266.86-17.58L266.86-17.58L266.86-17.58Q267.46-19.53 268.07-21.05L268.07-21.05L268.07-21.05Q268.67-22.58 269.18-23.59L269.18-23.59L269.18-23.59Q269.69-24.61 269.92-24.96L269.92-24.96L271.29-24.65L271.29-24.65Q270.66-21.72 270.21-19.39L270.21-19.39L270.21-19.39Q269.77-17.07 269.49-15.20L269.49-15.20L269.49-15.20Q269.22-13.32 269.08-11.86L269.08-11.86L269.08-11.86Q268.95-10.39 268.95-9.22L268.95-9.22L268.95-9.22Q268.95-6.88 269.69-5.47L269.69-5.47L269.69-5.47Q270.43-4.06 271.99-4.06L271.99-4.06L271.99-4.06Q273.05-4.06 274.02-4.84L274.02-4.84L274.02-4.84Q275-5.63 276.05-7.42L276.05-7.42L276.05-7.42Q277.11-9.22 278.28-12.07L278.28-12.07L278.28-12.07Q279.45-14.92 280.94-19.10L280.94-19.10L282.46-18.71L282.46-18.71Q281.80-17.07 281.13-15.20L281.13-15.20L281.13-15.20Q280.47-13.32 279.71-11.45L279.71-11.45L279.71-11.45Q278.95-9.57 278.11-7.85L278.11-7.85L278.11-7.85Q277.27-6.13 276.23-4.80L276.23-4.80L276.23-4.80Q275.20-3.48 273.98-2.70L273.98-2.70L273.98-2.70Q272.77-1.91 271.29-1.91L271.29-1.91L271.29-1.91Q269.88-1.91 268.83-2.46L268.83-2.46L268.83-2.46Q267.77-3.01 267.05-3.95L267.05-3.95L267.05-3.95Q266.33-4.88 265.96-6.19L265.96-6.19L265.96-6.19Q265.59-7.50 265.59-9.02" fill="#0a0a0a" stroke="none" stroke-width="none" transform="translate(-172.56002807617188,19.775490933931795)" style="fill: rgb(10, 10, 10);"></path></g><g class="path" style="transform: matrix(1, 0, 0, 1, 0, 0); transform-origin: 126.01496887207031px 5.340492248535156px; animation: tremble-9944c60d-1e41-4672-bcab-daef376c9e72 11.11111111111111s linear -0.5641025641025641s infinite normal forwards;"><path d="M282.46-18.71L280.94-19.10L280.94-19.10Q281.52-20.63 282.21-22.01L282.21-22.01L282.21-22.01Q282.89-23.40 283.67-24.45L283.67-24.45L283.67-24.45Q284.45-25.51 285.37-26.15L285.37-26.15L285.37-26.15Q286.29-26.80 287.42-26.80L287.42-26.80L287.42-26.80Q287.97-26.80 288.67-26.56L288.67-26.56L288.67-26.56Q289.38-26.33 290.02-25.63L290.02-25.63L290.02-25.63Q290.66-24.92 291.09-23.59L291.09-23.59L291.09-23.59Q291.52-22.27 291.52-20.08L291.52-20.08L291.52-20.08Q291.52-18.95 291.41-17.58L291.41-17.58L291.41-17.58Q291.29-16.21 291.17-14.88L291.17-14.88L291.17-14.88Q292.38-17.46 293.57-19.24L293.57-19.24L293.57-19.24Q294.77-21.02 295.92-22.09L295.92-22.09L295.92-22.09Q297.07-23.16 298.20-23.65L298.20-23.65L298.20-23.65Q299.34-24.14 300.47-24.14L300.47-24.14L300.47-24.14Q300.98-24.14 301.66-23.91L301.66-23.91L301.66-23.91Q302.34-23.67 302.95-23.09L302.95-23.09L302.95-23.09Q303.55-22.50 303.96-21.48L303.96-21.48L303.96-21.48Q304.38-20.47 304.38-18.87L304.38-18.87L304.38-18.87Q304.38-17.58 304.18-16.29L304.18-16.29L304.18-16.29Q303.98-15 303.75-13.79L303.75-13.79L303.75-13.79Q303.52-12.58 303.32-11.50L303.32-11.50L303.32-11.50Q303.13-10.43 303.13-9.61L303.13-9.61L303.13-9.61Q303.13-7.66 303.83-6.62L303.83-6.62L303.83-6.62Q304.53-5.59 305.98-5.59L305.98-5.59L305.98-5.59Q307.15-5.59 308.20-6.46L308.20-6.46L308.20-6.46Q309.26-7.34 310.18-8.71L310.18-8.71L310.18-8.71Q311.09-10.08 311.86-11.72L311.86-11.72L311.86-11.72Q312.62-13.36 313.18-14.86L313.18-14.86L313.18-14.86Q313.75-16.37 314.14-17.52L314.14-17.52L314.14-17.52Q314.53-18.67 314.69-19.10L314.69-19.10L316.21-18.71L316.21-18.71Q315.66-17.34 315.06-15.68L315.06-15.68L315.06-15.68Q314.45-14.02 313.71-12.34L313.71-12.34L313.71-12.34Q312.97-10.66 312.11-9.08L312.11-9.08L312.11-9.08Q311.25-7.50 310.20-6.29L310.20-6.29L310.20-6.29Q309.14-5.08 307.91-4.34L307.91-4.34L307.91-4.34Q306.68-3.59 305.20-3.59L305.20-3.59L305.20-3.59Q303.95-3.59 303.03-4.08L303.03-4.08L303.03-4.08Q302.11-4.57 301.48-5.39L301.48-5.39L301.48-5.39Q300.86-6.21 300.55-7.34L300.55-7.34L300.55-7.34Q300.23-8.48 300.23-9.77L300.23-9.77L300.23-9.77Q300.23-11.21 300.49-12.73L300.49-12.73L300.49-12.73Q300.74-14.26 301.04-15.66L301.04-15.66L301.04-15.66Q301.33-17.07 301.58-18.26L301.58-18.26L301.58-18.26Q301.84-19.45 301.84-20.23L301.84-20.23L301.84-20.23Q301.84-21.45 301.37-22.05L301.37-22.05L301.37-22.05Q300.90-22.66 300.08-22.66L300.08-22.66L300.08-22.66Q298.95-22.66 297.87-21.84L297.87-21.84L297.87-21.84Q296.80-21.02 295.80-19.65L295.80-19.65L295.80-19.65Q294.80-18.28 293.91-16.52L293.91-16.52L293.91-16.52Q293.01-14.77 292.25-12.91L292.25-12.91L292.25-12.91Q291.48-11.05 290.84-9.22L290.84-9.22L290.84-9.22Q290.20-7.38 289.73-5.90L289.73-5.90L289.73-5.90Q289.26-4.41 288.93-3.38L288.93-3.38L288.93-3.38Q288.59-2.34 288.48-2.07L288.48-2.07L286.21-2.46L286.21-2.46Q286.68-4.77 287.07-7.32L287.07-7.32L287.07-7.32Q287.46-9.88 287.75-12.36L287.75-12.36L287.75-12.36Q288.05-14.84 288.22-17.11L288.22-17.11L288.22-17.11Q288.40-19.38 288.40-21.13L288.40-21.13L288.40-21.13Q288.40-23.52 288.09-24.36L288.09-24.36L288.09-24.36Q287.77-25.20 286.95-25.20L286.95-25.20L286.95-25.20Q286.25-25.20 285.63-24.67L285.63-24.67L285.63-24.67Q285-24.14 284.47-23.26L284.47-23.26L284.47-23.26Q283.95-22.38 283.44-21.21L283.44-21.21L283.44-21.21Q282.93-20.04 282.46-18.71L282.46-18.71" fill="#0a0a0a" stroke="none" stroke-width="none" transform="translate(-172.56002807617188,19.775490933931795)" style="fill: rgb(10, 10, 10);"></path></g><g class="path" style="transform: matrix(1, 0, 0, 1, 0, 0); transform-origin: 158.45497131347656px -7.234506607055664px; animation: tremble-9944c60d-1e41-4672-bcab-daef376c9e72 11.11111111111111s linear 0s infinite normal forwards;"><path d="M326.29-27.70L326.29-27.70L326.29-27.70Q328.01-27.70 329.24-27.25L329.24-27.25L329.24-27.25Q330.47-26.80 331.25-26.33L331.25-26.33L331.25-26.33Q331.52-31.45 332.15-35.41L332.15-35.41L332.15-35.41Q332.77-39.38 333.61-42.32L333.61-42.32L333.61-42.32Q334.45-45.27 335.43-47.29L335.43-47.29L335.43-47.29Q336.41-49.30 337.42-50.53L337.42-50.53L337.42-50.53Q338.44-51.76 339.39-52.29L339.39-52.29L339.39-52.29Q340.35-52.81 341.17-52.81L341.17-52.81L341.17-52.81Q342.93-52.81 343.85-51.33L343.85-51.33L343.85-51.33Q344.77-49.84 344.77-46.95L344.77-46.95L344.77-46.95Q344.77-45.43 344.43-43.07L344.43-43.07L344.43-43.07Q344.10-40.70 343.46-37.79L343.46-37.79L343.46-37.79Q342.81-34.88 341.89-31.56L341.89-31.56L341.89-31.56Q340.98-28.24 339.79-24.88L339.79-24.88L339.79-24.88Q338.59-21.52 337.19-18.24L337.19-18.24L337.19-18.24Q335.78-14.96 334.14-12.07L334.14-12.07L334.14-12.07Q334.30-9.84 334.63-8.48L334.63-8.48L334.63-8.48Q334.96-7.11 335.47-6.35L335.47-6.35L335.47-6.35Q335.98-5.59 336.64-5.31L336.64-5.31L336.64-5.31Q337.30-5.04 338.13-5.04L338.13-5.04L338.13-5.04Q339.26-5.04 340.31-5.80L340.31-5.80L340.31-5.80Q341.37-6.56 342.46-8.24L342.46-8.24L342.46-8.24Q343.55-9.92 344.73-12.60L344.73-12.60L344.73-12.60Q345.90-15.27 347.27-19.10L347.27-19.10L348.79-18.71L348.79-18.71Q347.66-15.70 346.52-12.87L346.52-12.87L346.52-12.87Q345.39-10.04 344.08-7.83L344.08-7.83L344.08-7.83Q342.77-5.63 341.21-4.30L341.21-4.30L341.21-4.30Q339.65-2.97 337.66-2.97L337.66-2.97L337.66-2.97Q335.20-2.97 333.83-4.43L333.83-4.43L333.83-4.43Q332.46-5.90 331.80-8.48L331.80-8.48L331.80-8.48Q329.53-5.16 326.93-3.18L326.93-3.18L326.93-3.18Q324.34-1.21 321.48-1.21L321.48-1.21L321.48-1.21Q319.88-1.21 318.40-1.82L318.40-1.82L318.40-1.82Q316.91-2.42 315.78-3.69L315.78-3.69L315.78-3.69Q314.65-4.96 313.95-6.93L313.95-6.93L313.95-6.93Q313.24-8.91 313.24-11.68L313.24-11.68L313.24-11.68Q313.24-14.57 314.16-17.42L314.16-17.42L314.16-17.42Q315.08-20.27 316.78-22.56L316.78-22.56L316.78-22.56Q318.48-24.84 320.88-26.27L320.88-26.27L320.88-26.27Q323.28-27.70 326.29-27.70zM322.85-3.44L322.85-3.44L322.85-3.44Q325.04-3.44 327.25-5.37L327.25-5.37L327.25-5.37Q329.45-7.30 331.48-10.47L331.48-10.47L331.48-10.47Q331.25-12.30 331.17-14.38L331.17-14.38L331.17-14.38Q331.09-16.45 331.09-18.79L331.09-18.79L331.09-18.79Q331.09-20.27 331.09-21.74L331.09-21.74L331.09-21.74Q331.09-23.20 331.17-24.57L331.17-24.57L331.17-24.57Q330.98-24.73 330.61-25L330.61-25L330.61-25Q330.23-25.27 329.67-25.55L329.67-25.55L329.67-25.55Q329.10-25.82 328.38-26.00L328.38-26.00L328.38-26.00Q327.66-26.17 326.76-26.17L326.76-26.17L326.76-26.17Q325.43-26.17 323.75-25.43L323.75-25.43L323.75-25.43Q322.07-24.69 320.57-23.03L320.57-23.03L320.57-23.03Q319.06-21.37 318.05-18.71L318.05-18.71L318.05-18.71Q317.03-16.05 317.03-12.23L317.03-12.23L317.03-12.23Q317.03-10.39 317.44-8.79L317.44-8.79L317.44-8.79Q317.85-7.19 318.61-6.00L318.61-6.00L318.61-6.00Q319.38-4.80 320.45-4.12L320.45-4.12L320.45-4.12Q321.52-3.44 322.85-3.44zM343.24-46.95L343.24-46.95L343.24-46.95Q343.24-47.54 343.18-48.28L343.18-48.28L343.18-48.28Q343.13-49.02 342.93-49.67L342.93-49.67L342.93-49.67Q342.73-50.31 342.36-50.76L342.36-50.76L342.36-50.76Q341.99-51.21 341.33-51.21L341.33-51.21L341.33-51.21Q339.73-51.21 338.38-48.55L338.38-48.55L338.38-48.55Q337.03-45.90 336.05-41.23L336.05-41.23L336.05-41.23Q335.08-36.56 334.53-30.27L334.53-30.27L334.53-30.27Q333.98-23.98 333.98-16.72L333.98-16.72L333.98-14.96L333.98-14.96Q335.31-17.58 336.52-20.55L336.52-20.55L336.52-20.55Q337.73-23.52 338.77-26.52L338.77-26.52L338.77-26.52Q339.80-29.53 340.63-32.50L340.63-32.50L340.63-32.50Q341.45-35.47 342.03-38.14L342.03-38.14L342.03-38.14Q342.62-40.82 342.93-43.09L342.93-43.09L342.93-43.09Q343.24-45.35 343.24-46.95" fill="#0a0a0a" stroke="none" stroke-width="none" transform="translate(-172.56002807617188,19.775490933931795)" style="fill: rgb(10, 10, 10);"></path></g></g>
</g>
</g>
<style id="tremble-9944c60d-1e41-4672-bcab-daef376c9e72" data-anikit="">@keyframes tremble-9944c60d-1e41-4672-bcab-daef376c9e72 {
  0% { transform: translate(0px,0px) rotate(0deg) scale(1) }
  3.33333% { transform: translate(-0.18923px,1.45485px) rotate(0deg) scale(1) }
  6.66667% { transform: translate(-0.84296px,-1.32524px) rotate(0deg) scale(1) }
  10% { transform: translate(0.67971px,1.00422px) rotate(0deg) scale(1) }
  13.33333% { transform: translate(-0.5056px,0.83616px) rotate(0deg) scale(1) }
  16.66667% { transform: translate(1.31368px,-0.51401px) rotate(0deg) scale(1) }
  20% { transform: translate(-1.21184px,1.49193px) rotate(0deg) scale(1) }
  23.33333% { transform: translate(1.09065px,-0.21259px) rotate(0deg) scale(1) }
  26.66667% { transform: translate(-1.49916px,0.56159px) rotate(0deg) scale(1) }
  30% { transform: translate(1.48086px,1.21228px) rotate(0deg) scale(1) }
  33.33333% { transform: translate(-1.43889px,-1.152px) rotate(0deg) scale(1) }
  36.66667% { transform: translate(1.35914px,1.34835px) rotate(0deg) scale(1) }
  40% { transform: translate(-1.42834px,0.3091px) rotate(0deg) scale(1) }
  43.33333% { transform: translate(1.47472px,-1.49889px) rotate(0deg) scale(1) }
  46.66667% { transform: translate(-0.92402px,1.4416px) rotate(0deg) scale(1) }
  50% { transform: translate(1.0657px,-0.75306px) rotate(0deg) scale(1) }
  53.33333% { transform: translate(-1.19035px,-1.07484px) rotate(0deg) scale(1) }
  56.66667% { transform: translate(0.28828px,0.79337px) rotate(0deg) scale(1) }
  60% { transform: translate(-0.47167px,-1.42789px) rotate(0deg) scale(1) }
  63.33333% { transform: translate(0.64753px,-0.09795px) rotate(0deg) scale(1) }
  66.66667% { transform: translate(0.41006px,-0.26292px) rotate(0deg) scale(1) }
  70% { transform: translate(-0.22477px,-1.3683px) rotate(0deg) scale(1) }
  73.33333% { transform: translate(0.03588px,0.92931px) rotate(0deg) scale(1) }
  76.66667% { transform: translate(-1.01937px,-1.18398px) rotate(0deg) scale(1) }
  80% { transform: translate(0.8724px,-0.60494px) rotate(0deg) scale(1) }
  83.33333% { transform: translate(-0.71151px,1.4786px) rotate(0deg) scale(1) }
  86.66667% { transform: translate(1.40734px,-1.49607px) rotate(0deg) scale(1) }
  90% { transform: translate(-1.33062px,0.46957px) rotate(0deg) scale(1) }
  93.33333% { transform: translate(1.23264px,1.26738px) rotate(0deg) scale(1) }
  96.66667% { transform: translate(-1.48975px,-1.03867px) rotate(0deg) scale(1) }
  100% { transform: translate(0,0) rotate(0) scale(1) }
}</style></svg>