<?xml version="1.0" encoding="utf-8"?>
<svg xmlns="http://www.w3.org/2000/svg" xmlns:xlink="http://www.w3.org/1999/xlink" style="margin: auto; display: block; z-index: 1; position: relative; shape-rendering: auto;" width="2255" height="929" preserveAspectRatio="xMidYMid" viewBox="0 0 2255 929">
<g transform=""><g transform="translate(1751.1298435175136,-19.23689209561161) scale(100)" opacity="0.4">
  <path d="M7.6557249999999994 0 C7.6557249999999994 1.815275 7.947796164349743 2.492563235145202 7.040158664349743 4.064637499999999 S5.399936764854798 5.722414834387621 3.8278625000000006 6.630052334387621 S1.8152750000000004 8.129275 4.977745304069299e-16 8.129275 S-2.255788235145201 7.5376898343876215 -3.827862499999998 6.630052334387622 S-6.132521164349741 5.636711764854799 -7.040158664349741 4.064637500000003 S-7.6557249999999994 1.8152750000000009 -7.6557249999999994 9.37555911640237e-16 S-7.947796164349743 -2.4925632351452 -7.040158664349744 -4.064637499999997 S-5.3999367648548 -5.722414834387619 -3.8278625000000033 -6.63005233438762 S-1.8152750000000015 -8.129275 -1.4933235912207898e-15 -8.129275 S2.2557882351451974 -7.537689834387623 3.827862499999995 -6.630052334387624 S6.13252116434974 -5.6367117648548 7.0401586643497405 -4.0646375000000035 S7.655724999999999 -1.8152750000000017 7.6557249999999994 -1.875111823280474e-15" fill="#eb7f19" stroke-width="0">
    <animateTransform attributeName="transform" type="rotate" dur="10s" repeatCount="indefinite" values="0;60"></animateTransform>
  </path>
</g><g transform="translate(1875.8558122210163,-115.98427051473391) scale(100)" opacity="0.4">
  <path d="M9.186869999999999 0 C9.186869999999999 2.1783299999999994 9.53735539721969 2.991075882174242 8.44819039721969 4.877564999999998 S6.479924117825756 6.866897801265145 4.593435 7.956062801265144 S2.17833 9.755129999999998 5.973294364883159e-16 9.755129999999998 S-2.706945882174242 9.045227801265145 -4.593434999999998 7.956062801265146 S-7.359025397219686 6.764054117825758 -8.448190397219687 4.877565000000002 S-9.186869999999999 2.1783300000000008 -9.186869999999999 1.1250670939682844e-15 S-9.53735539721969 -2.99107588217424 -8.44819039721969 -4.877564999999996 S-6.479924117825759 -6.866897801265143 -4.593435000000004 -7.956062801265143 S-2.178330000000001 -9.755129999999998 -1.7919883094649473e-15 -9.755129999999998 S2.706945882174237 -9.045227801265147 4.593434999999993 -7.956062801265149 S7.359025397219686 -6.764054117825759 8.448190397219687 -4.877565000000003 S9.186869999999999 -2.1783300000000017 9.186869999999999 -2.250134187936569e-15" fill="#e49634" stroke-width="0">
    <animateTransform attributeName="transform" type="rotate" dur="5s" repeatCount="indefinite" values="0;60"></animateTransform>
  </path>
</g><g transform="translate(2175.1981371094225,-348.1779787206274) scale(100)" opacity="0.4">
  <path d="M12.861617999999998 0 C12.861617999999998 3.049661999999999 13.352297556107565 4.187506235043939 11.827466556107566 6.828590999999998 S9.071893764956059 9.6136569217712 6.430809000000001 11.138487921771201 S3.049662 13.657181999999997 8.362612110836422e-16 13.657181999999997 S-3.789724235043938 12.663318921771202 -6.4308089999999964 11.138487921771203 S-10.302635556107562 9.46967576495606 -11.827466556107563 6.828591000000003 S-12.861617999999998 3.049662000000001 -12.861617999999998 1.575093931555598e-15 S-13.352297556107565 -4.187506235043936 -11.827466556107566 -6.828590999999995 S-9.071893764956062 -9.6136569217712 -6.430809000000004 -11.138487921771201 S-3.049662000000002 -13.657181999999997 -2.5087836332509264e-15 -13.657181999999997 S3.789724235043931 -12.663318921771205 6.43080899999999 -11.138487921771208 S10.30263555610756 -9.469675764956062 11.827466556107561 -6.828591000000005 S12.861617999999998 -3.0496620000000023 12.861617999999998 -3.150187863111196e-15" fill="#dfa950" stroke-width="0">
    <animateTransform attributeName="transform" type="rotate" dur="3.333333333333333s" repeatCount="indefinite" values="0;60"></animateTransform>
  </path>
</g></g>
</svg>